<?xml version="1.0" encoding="UTF-8"?>
<svg version="1.1" xmlns="http://www.w3.org/2000/svg" width="1400" height="1044">
<path d="M0 0 C60.39 0.495 60.39 0.495 122 1 C130.67359622 22.68399054 130.67359622 22.68399054 133.80004883 30.98461914 C152.61605139 80.8658056 180.09753888 124.7037739 216 164 C216.90014558 165.00484479 217.79986407 166.01007228 218.69921875 167.015625 C246.07618807 197.4112593 279.66840797 222.63511156 315 243 C315.72300293 243.42200684 316.44600586 243.84401367 317.19091797 244.27880859 C361.63797597 270.15587142 410.48707856 287.18589927 461.25 295.25 C462.19327148 295.40122314 463.13654297 295.55244629 464.10839844 295.70825195 C483.50321424 298.59271776 502.91750356 299.37993445 522.5 299.3125 C523.63541229 299.31034485 524.77082458 299.3081897 525.94064331 299.30596924 C544.13719507 299.25077258 561.96832995 298.62417133 580 296 C580.66358521 295.90525391 581.32717041 295.81050781 582.01086426 295.71289062 C624.89116825 289.56380831 667.13079268 278.45415705 706.49902344 260.16162109 C708.95207043 259.0222617 711.41594054 257.90982877 713.8828125 256.80078125 C738.13482517 245.76405602 761.09014183 231.50942533 782 215 C782.90492188 214.28714844 783.80984375 213.57429687 784.7421875 212.83984375 C796.62316748 203.29803688 807.36993869 192.74278923 818.05834961 181.9050293 C818.88343018 181.07140869 819.70851074 180.23778809 820.55859375 179.37890625 C821.29392334 178.6319751 822.02925293 177.88504395 822.78686523 177.11547852 C825.08499757 174.91875301 827.50672017 172.96976955 830 171 C831.0972291 169.82311258 832.16158081 168.61454246 833.1875 167.375 C835.94146255 164.14312637 838.83512815 161.15196418 841.875 158.1875 C855.84438581 144.30201441 867.00121421 127.48866253 878.1809082 111.34326172 C878.87059692 110.35350342 878.87059692 110.35350342 879.57421875 109.34375 C880.17109497 108.48040039 880.17109497 108.48040039 880.7800293 107.59960938 C882.06600456 105.9134557 883.46977912 104.465111 885 103 C884.45678118 108.09366049 882.71824226 112.1100027 880.3125 116.5625 C879.92022217 117.29355957 879.52794434 118.02461914 879.1237793 118.77783203 C867.1221462 140.60189649 851.54760367 160.60688804 836 180 C835.22873779 180.96848877 835.22873779 180.96848877 834.44189453 181.95654297 C823.93116258 195.14468576 812.71090072 207.36813483 800.8125 219.3125 C800.3387796 219.78898987 799.8650592 220.26547974 799.37698364 220.75640869 C793.76038197 226.39695942 788.05698774 231.83660044 782 237 C780.80834247 238.04510646 779.61821622 239.09196172 778.4296875 240.140625 C770.16688974 247.38495814 761.75524543 254.35876743 753 261 C752.27796387 261.5480127 751.55592773 262.09602539 750.81201172 262.66064453 C684.60539399 312.67504709 605.67720355 344.51087137 478.16796875 358.203125 C476.98521866 358.21013931 475.80246857 358.21715363 474.58387756 358.22438049 C470.78504585 358.24179127 466.98637015 358.24823345 463.1875 358.25 C461.23873962 358.25101212 461.23873962 358.25101212 459.25061035 358.25204468 C439.64804978 358.23586696 420.42500109 357.79546989 401 355 C399.75589355 354.82307617 398.51178711 354.64615234 397.22998047 354.46386719 C326.25679987 344.06440583 256.90709166 318.71368998 197 279 C196.21286621 278.47937988 195.42573242 277.95875977 194.61474609 277.42236328 C178.29921591 266.57502575 162.79197871 254.84457535 148 242 C146.89785156 241.04867187 146.89785156 241.04867187 145.7734375 240.078125 C143.83815929 238.39728576 141.9184057 236.70005058 140 235 C139.30390625 234.39671875 138.6078125 233.7934375 137.890625 233.171875 C126.94329548 223.54704167 115.89067958 213.31671299 107.05859375 201.69140625 C104.25718113 198.02883833 101.31404423 194.48998959 98.375 190.9375 C97.15880914 189.4622767 95.94266389 187.9870158 94.7265625 186.51171875 C92.26704843 183.53179884 89.8029269 180.55576432 87.3359375 177.58203125 C83.87202599 173.4030986 80.43148422 169.20557566 77 165 C76.5467334 164.44957031 76.0934668 163.89914062 75.62646484 163.33203125 C43.06587168 123.60385458 0 52.70971835 0 0 Z " fill="#05BBDC" transform="translate(268,591)"/>
<path d="M0 0 C1.1511731 -0.00067474 2.30234619 -0.00134949 3.48840332 -0.00204468 C22.54816266 0.01563446 41.21520356 0.73614946 60.125 3.25 C61.11481873 3.3808197 61.11481873 3.3808197 62.12463379 3.51428223 C108.40398516 9.68024786 153.66774143 21.66181575 196.125 41.25 C197.05973145 41.67361816 197.99446289 42.09723633 198.95751953 42.53369141 C214.2718083 49.48854945 228.74262642 57.54551633 243.125 66.25 C244.05119141 66.80478027 244.97738281 67.35956055 245.93164062 67.93115234 C257.65235222 74.95898458 268.90132932 82.42347495 279.8671875 90.57763672 C282.20288907 92.30769249 284.55268865 94.01699073 286.90625 95.72265625 C311.65192752 113.7034181 336.3458638 133.72067049 355.265625 157.95703125 C357.05901233 160.16862445 358.94164165 162.09882614 361 164.0625 C366.03926121 168.98319036 370.22640849 174.54107698 374.49121094 180.12451172 C376.24028704 182.39998341 378.01364741 184.65518561 379.7890625 186.91015625 C412.6247841 228.91573356 462.125 301.46008124 462.125 357.25 C421.535 357.25 380.945 357.25 339.125 357.25 C331.205 335.965 331.205 335.965 323.125 314.25 C319.26793527 305.77958335 315.41446437 297.48058549 311.125 289.25 C310.27732195 287.57749324 309.43093645 285.90433066 308.5859375 284.23046875 C292.57248664 252.82980903 272.50426009 223.55666092 248.49804688 197.74072266 C246.28090942 195.33356737 244.11582103 192.8797587 241.9375 190.4375 C238.61986302 186.78238821 235.2281713 183.49310924 231.453125 180.32421875 C228.2076867 177.43272926 225.18023178 174.3401556 222.125 171.25 C217.28280699 166.36785176 212.39610178 161.67060506 207.125 157.25 C206.22136719 156.45722656 205.31773437 155.66445312 204.38671875 154.84765625 C158.09924164 114.46166608 99.11408131 86.84004048 40.125 71.25 C39.1345166 70.98735352 38.1440332 70.72470703 37.12353516 70.45410156 C-61.04112182 44.95556006 -165.66120971 59.04653034 -275.47583008 114.1418457 C-285.16655273 119.84918843 -294.64619752 125.8231259 -303.875 132.25 C-304.74729248 132.85424805 -304.74729248 132.85424805 -305.63720703 133.47070312 C-319.71361849 143.255573 -333.00554078 153.93201265 -345.875 165.25 C-346.79023438 166.05179688 -347.70546875 166.85359375 -348.6484375 167.6796875 C-355.15820053 173.51795635 -361.39028443 179.63895602 -367.59667969 185.79644775 C-369.01881295 187.20667858 -370.44489288 188.61292595 -371.87109375 190.01904297 C-377.97891908 196.11923352 -383.4865966 202.51297779 -388.875 209.25 C-389.81001758 210.35162616 -390.75135133 211.44797414 -391.703125 212.53515625 C-403.53264518 226.10094471 -413.58485747 240.85730335 -422.875 256.25 C-423.535 255.92 -424.195 255.59 -424.875 255.25 C-412.54754148 229.28982264 -396.33677107 205.98811922 -378.875 183.25 C-378.41528809 182.64994141 -377.95557617 182.04988281 -377.48193359 181.43164062 C-366.64258861 167.32780331 -355.09564733 154.11323643 -342.49414062 141.5534668 C-340.49978082 139.56228117 -338.51920043 137.55805184 -336.5390625 135.55273438 C-329.39510592 128.37447832 -322.097132 121.73764977 -314.00463867 115.64282227 C-310.74961414 113.15413395 -307.66277287 110.55299697 -304.5625 107.875 C-274.65591556 82.37014503 -240.31904751 61.16367954 -204.875 44.25 C-204.14684082 43.90114746 -203.41868164 43.55229492 -202.66845703 43.19287109 C-151.75069227 19.00991905 -95.86017028 6.06395841 -39.875 1.25 C-38.79444336 1.15428711 -37.71388672 1.05857422 -36.60058594 0.95996094 C-24.41528098 0.00793067 -12.21618601 0.00645722 0 0 Z " fill="#06B6DA" transform="translate(695.875,-0.24999999999999997)"/>
<path d="M0 0 C32.01 0 64.02 0 97 0 C102.58410596 12.28503311 102.58410596 12.28503311 104.5859375 17.328125 C116.98817348 48.1664186 130.82422189 78.37863713 151 105 C151.43135254 105.57411621 151.86270508 106.14823242 152.30712891 106.73974609 C159.03246863 115.65039154 166.24198351 123.97614628 174 132 C174.94697754 132.97984863 174.94697754 132.97984863 175.91308594 133.97949219 C183.06900037 141.34332665 190.23068062 148.52962544 198.3203125 154.87890625 C200.76445887 156.81355855 203.12228914 158.82373001 205.47192383 160.87133789 C263.17809371 210.88925675 339.61503086 237.18723633 415.5 237.25 C416.35182861 237.25100708 417.20365723 237.25201416 418.08129883 237.25305176 C433.87688271 237.24052143 449.34625842 236.23693089 465 234 C466.01400879 233.85546387 467.02801758 233.71092773 468.07275391 233.56201172 C523.74609431 225.3191807 576.10835129 202.83684487 621 169 C621.8647998 168.3493457 621.8647998 168.3493457 622.74707031 167.68554688 C637.36778967 156.61045156 651.15045634 144.18822386 663.06640625 130.21484375 C665.09878755 127.88684335 667.1934489 125.62872045 669.30322266 123.37109375 C677.36138263 114.73967543 684.786392 105.74208599 691.8125 96.25 C692.26890869 95.63592285 692.72531738 95.0218457 693.19555664 94.38916016 C696.11002797 90.40252023 698.61982137 86.32759751 701 82 C702 85 702 85 700.55078125 88.37890625 C699.81856611 89.78077439 699.0712719 91.17482623 698.3125 92.5625 C697.90604248 93.3148291 697.49958496 94.0671582 697.08081055 94.84228516 C686.17023245 114.63013429 672.35289693 133.24491646 657.49609375 150.23291016 C656.35409995 151.58175989 655.24223677 152.95617755 654.14453125 154.34130859 C648.32669143 161.65756183 642.01769234 168.29089247 635.38964844 174.87109375 C633.62719762 176.62281575 631.87571432 178.38499428 630.125 180.1484375 C623.39067624 186.89098467 616.49160103 193.09835956 609 199 C607.79095542 199.99991089 606.58478729 201.00332042 605.3828125 202.01171875 C595.12679193 210.48657734 584.19336527 217.82563769 573 225 C572.3512793 225.41846191 571.70255859 225.83692383 571.03417969 226.26806641 C531.850138 251.33672536 487.41993075 267.72995312 442 277 C441.00419922 277.20705566 440.00839844 277.41411133 438.98242188 277.62744141 C360.70781775 293.59169486 277.13944631 282.71691274 205 249 C204.16774902 248.61408691 203.33549805 248.22817383 202.47802734 247.83056641 C154.8305948 225.52088952 107.34455221 189.78388071 75 148 C73.42034809 146.14269596 71.83676743 144.28872867 70.25 142.4375 C41.27223138 107.62829188 0 46.84168961 0 0 Z " fill="#068CC3" transform="translate(429,591)"/>
<path d="M0 0 C0.87140625 0.80824219 1.7428125 1.61648437 2.640625 2.44921875 C4.6391708 4.29224857 6.67315493 6.05960726 8.75 7.8125 C18.14407946 15.98126475 27.02589895 25.07061013 35 34.625 C35.80308594 35.55054688 36.60617187 36.47609375 37.43359375 37.4296875 C54.09398135 56.68450333 68.81235684 77.70342707 80.72412109 100.21728516 C82.0996521 102.81305377 83.49726896 105.39633918 84.89453125 107.98046875 C115.48231458 165.02695631 115.48231458 165.02695631 115 189.625 C82.32337591 189.80636629 49.66948511 189.28190127 17 188.625 C16.72129059 187.89302399 16.44258118 187.16104797 16.15542603 186.40689087 C14.86920656 183.03329586 13.57915785 179.66117714 12.2890625 176.2890625 C11.85086182 175.13801025 11.41266113 173.98695801 10.96118164 172.80102539 C5.15150891 157.63579472 -1.59265744 142.93109618 -9.03369141 128.5 C-9.67013888 127.26505391 -10.3027303 126.02811172 -10.93115234 124.7890625 C-19.63673367 107.64463187 -30.13866659 91.74036552 -42 76.625 C-42.74636719 75.66464844 -43.49273438 74.70429688 -44.26171875 73.71484375 C-57.93109284 56.55864226 -73.66725456 41.38670348 -91.08691406 28.10107422 C-93.13725269 26.51910033 -95.15951652 24.90545357 -97.1796875 23.28515625 C-153.51945393 -21.69017826 -222.9833582 -46.31689164 -295 -48.375 C-296.29808594 -48.41625 -297.59617187 -48.4575 -298.93359375 -48.5 C-349.52656111 -49.55207475 -400.42561962 -36.9725716 -446 -15.375 C-447.11713379 -14.8476123 -447.11713379 -14.8476123 -448.25683594 -14.30957031 C-479.35611868 0.50974134 -506.62953114 20.44029461 -532 43.625 C-533.01289099 44.5444139 -534.02591816 45.46367779 -535.0390625 46.3828125 C-543.16168165 53.76804304 -550.8579303 61.28093813 -558 69.625 C-558.81339844 70.54925781 -559.62679688 71.47351563 -560.46484375 72.42578125 C-565.80626521 78.5475198 -570.74813702 84.8634266 -575.4375 91.5 C-576.18132935 92.55175415 -576.18132935 92.55175415 -576.94018555 93.62475586 C-579.87570164 97.84045949 -582.51664683 102.12795856 -585 106.625 C-586 103.625 -586 103.625 -585.38598633 101.82592773 C-585.03818115 101.16020752 -584.69037598 100.4944873 -584.33203125 99.80859375 C-583.93951172 99.05336426 -583.54699219 98.29813477 -583.14257812 97.52001953 C-582.70365234 96.70903809 -582.26472656 95.89805664 -581.8125 95.0625 C-581.36197266 94.22058105 -580.91144531 93.37866211 -580.44726562 92.51123047 C-572.905416 78.68880497 -563.83473352 65.8980972 -554 53.625 C-553.25105469 52.68269531 -552.50210938 51.74039063 -551.73046875 50.76953125 C-547.19577749 45.13889009 -542.46017713 39.73593248 -537.5546875 34.42578125 C-536.21396466 32.95590621 -534.87740884 31.48134906 -533.5859375 29.96801758 C-528.33900672 23.82328936 -522.67816935 18.11705224 -516.96777344 12.4074707 C-515.26205402 10.69956944 -513.56450973 8.98381955 -511.8671875 7.26757812 C-505.22098599 0.58727713 -498.40785374 -5.53748508 -491 -11.375 C-489.79095827 -12.37491433 -488.58478441 -13.378317 -487.3828125 -14.38671875 C-477.1279291 -22.86063767 -466.1976742 -30.20929896 -455 -37.375 C-454.33000977 -37.80409668 -453.66001953 -38.23319336 -452.96972656 -38.67529297 C-369.57549689 -91.54484049 -264.90525109 -106.95295023 0 0 Z " fill="#077FBC" transform="translate(881,168.375)"/>
<path d="M0 0 C20.13 0 40.26 0 61 0 C75.90458366 24.07663515 75.90458366 24.07663515 82.25 34.5625 C82.9595352 35.73337779 83.66917376 36.90419296 84.37890625 38.07495117 C85.47785836 39.88784555 86.57671486 41.70079731 87.6751709 43.51399231 C90.67024439 48.45783248 93.6709573 53.39823044 96.67337036 58.33761597 C99.20446218 62.50194212 101.7318361 66.66850698 104.2578125 70.8359375 C106.38716042 74.34825308 108.52277626 77.85611246 110.6796875 81.3515625 C118.29715235 93.75318676 125.26617127 106.6210663 131 120 C131 80.4 131 40.8 131 0 C149.81 0 168.62 0 188 0 C188 66.99 188 133.98 188 203 C168.2 203 148.4 203 128 203 C123.3355115 196.336445 118.99121518 189.81700563 114.9375 182.8125 C113.80204311 180.87165705 112.66528114 178.93157714 111.52734375 176.9921875 C110.94710449 176.0031543 110.36686523 175.01412109 109.76904297 173.99511719 C106.88787049 169.11708462 103.94863575 164.27497079 101 159.4375 C100.41951904 158.48512451 99.83903809 157.53274902 99.2409668 156.55151367 C95.81834336 150.94830569 92.36958111 145.36188831 88.90283203 139.78588867 C86.74691442 136.31508424 84.6011415 132.83808475 82.45800781 129.359375 C81.54536404 127.8825181 80.62868537 126.40813849 79.70605469 124.9375 C70.53318603 110.29633233 63.37590346 94.59582313 56 79 C56.09087891 80.37091797 56.09087891 80.37091797 56.18359375 81.76953125 C57.9745414 109.76238099 58.17760428 137.7119203 58.125 165.75 C58.12328796 166.66896057 58.12157593 167.58792114 58.11981201 168.534729 C58.09683645 180.02326573 58.05063485 191.51151589 58 203 C38.86 203 19.72 203 0 203 C0 136.01 0 69.02 0 0 Z M132 123 C133 125 133 125 133 125 Z " fill="#06A0CE" transform="translate(418,367)"/>
<path d="M0 0 C16.644375 -0.0825 33.28875 -0.165 50.4375 -0.25 C58.27133423 -0.30462402 58.27133423 -0.30462402 66.26342773 -0.36035156 C72.72473145 -0.37841797 72.72473145 -0.37841797 75.76576233 -0.3817749 C77.85421678 -0.38784919 79.94265873 -0.40177314 82.03102112 -0.42230225 C106.54135671 -0.65084328 128.44175248 3.28461391 147.3515625 20.08984375 C160.93412374 34.17060704 164.63638317 53.27170329 164.47290039 72.12524414 C163.9639008 89.49330323 158.85943796 103.62474265 146.8125 116.40625 C142.2829547 120.58349734 137.28359271 123.83166004 132 127 C138.33742637 140.02911882 145.20267632 152.75986371 152.10498047 165.49658203 C154.04682205 169.08656228 155.98012817 172.68100539 157.91015625 176.27734375 C158.54930564 177.46761646 159.18846566 178.65788346 159.82763672 179.84814453 C161.04218436 182.11047467 162.25608069 184.37315463 163.46923828 186.63623047 C164.01950684 187.65990723 164.56977539 188.68358398 165.13671875 189.73828125 C165.61842529 190.63587158 166.10013184 191.53346191 166.59643555 192.45825195 C167.56814372 194.21794126 168.60062481 195.944912 169.67895508 197.64135742 C171 200 171 200 171 203 C151.2 203 131.4 203 111 203 C108.9375 198.99875 106.875 194.9975 104.75 190.875 C98.7658561 179.30397064 92.60350436 167.84314896 86.33105469 156.42578125 C84.29083165 152.7075758 82.26275422 148.98314288 80.25 145.25 C79.91436035 144.63543945 79.5787207 144.02087891 79.23291016 143.38769531 C77 139.23036124 77 139.23036124 77 137 C70.4 137 63.8 137 57 137 C57 158.78 57 180.56 57 203 C38.19 203 19.38 203 0 203 C0 136.01 0 69.02 0 0 Z M57 45 C57 60.84 57 76.68 57 93 C80.97261042 94.73397401 80.97261042 94.73397401 102 85 C106.43923083 78.45862644 107.78275765 71.80552703 107 64 C105.61115412 58.50810658 103.66170088 53.38831334 98.85644531 50.01513672 C89.65947085 44.98607046 81.13586231 44.4841068 70.8125 44.75 C63.9753125 44.87375 63.9753125 44.87375 57 45 Z " fill="#06A9D2" transform="translate(1011,367)"/>
<path d="M0 0 C25.41 0 50.82 0 77 0 C86.9307951 29.01145778 96.76248471 58.05422329 106.53116608 87.12057114 C109.88371995 97.09525546 113.23830009 107.06925831 116.59375 117.04296875 C116.9584351 118.12703066 117.32312019 119.21109257 117.69885635 120.32800484 C122.33134479 134.09658232 126.97904803 147.8598277 131.65625 161.61328125 C131.90024914 162.33107254 132.14424828 163.04886383 132.39564133 163.78840637 C134.79704347 170.85277565 137.20269308 177.91566582 139.61572266 184.97607422 C140.35065286 187.13376627 141.0855209 189.29147949 141.8203125 191.44921875 C142.14978882 192.40862869 142.47926514 193.36803864 142.81872559 194.35652161 C143.11073853 195.21557602 143.40275146 196.07463043 143.70361328 196.9597168 C144.08273361 198.06829292 144.08273361 198.06829292 144.46951294 199.19926453 C145 201 145 201 145 203 C124.21 203 103.42 203 82 203 C79.92300442 198.15367699 78.21914425 193.75450161 76.73828125 188.75390625 C76.38032471 187.5532251 76.02236816 186.35254395 75.65356445 185.11547852 C75.21101318 183.61299561 74.76846191 182.1105127 74.3125 180.5625 C72.889375 175.756875 71.46625 170.95125 70 166 C49.54 166 29.08 166 8 166 C4.37 178.21 0.74 190.42 -3 203 C-23.46 203 -43.92 203 -65 203 C-64.28426617 197.98986321 -63.55066858 194.14700041 -61.99731445 189.46191406 C-61.7950185 188.84627216 -61.59272255 188.23063026 -61.38429642 187.59633255 C-60.71615217 185.56755696 -60.03974156 183.54164132 -59.36328125 181.515625 C-58.88699156 180.07459922 -58.41124962 178.63339229 -57.9360199 177.1920166 C-56.9262314 174.1328718 -55.91288188 171.07494018 -54.89660645 168.01794434 C-53.29858204 163.21083461 -51.70857165 158.40109951 -50.12011719 153.59082031 C-48.5341094 148.78891509 -46.94780369 143.9871113 -45.35873413 139.18621826 C-41.45312095 127.38576991 -37.58509098 115.57356667 -33.75 103.75 C-32.68032613 100.45552146 -31.60993302 97.16127726 -30.5390625 93.8671875 C-30.26844498 93.03472504 -29.99782745 92.20226257 -29.7190094 91.34457397 C-27.22752757 83.68697926 -24.72009228 76.0346313 -22.2109375 68.3828125 C-22.00137924 67.74365906 -21.79182098 67.10450562 -21.57591248 66.44598389 C-19.30053762 59.50612056 -17.0238009 52.56670739 -14.74511719 45.62792969 C-13.97849104 43.29102369 -13.21188849 40.95410995 -12.4453125 38.6171875 C-12.11550385 37.61422638 -11.78569519 36.61126526 -11.44589233 35.57791138 C-7.56435188 23.7392305 -3.79746847 11.86708897 0 0 Z M38 50 C33.65550565 66.68521663 29.37352237 83.38569491 25.17840576 100.10913086 C24.72579874 101.91271793 24.27238762 103.7161034 23.81817627 105.51928711 C23.17844237 108.06043444 22.54187053 110.60235235 21.90625 113.14453125 C21.71288055 113.9108638 21.51951111 114.67719635 21.32028198 115.4667511 C20.34486214 119.18813274 20.34486214 119.18813274 20 123 C32.21 123 44.42 123 57 123 C54.57131414 112.67808511 52.12916295 102.37232714 49.546875 92.08984375 C49.08924774 90.26145714 49.08924774 90.26145714 48.62237549 88.39613342 C47.66604085 84.57630639 46.7080546 80.75689596 45.75 76.9375 C45.09350354 74.31711899 44.43737247 71.69664655 43.78125 69.07617188 C42.188762 62.7171312 40.59492501 56.35842986 39 50 C38.67 50 38.34 50 38 50 Z " fill="#06A0CE" transform="translate(1255,367)"/>
<path d="M0 0 C25.41 0 50.82 0 77 0 C78.78664063 5.37152344 80.57328125 10.74304688 82.4140625 16.27734375 C84.81681221 23.49769431 87.22059736 30.71769971 89.625 37.9375 C89.93664722 38.87329769 90.24829445 39.80909538 90.56938553 40.77325058 C101.27828628 72.93876561 101.27828628 72.93876561 112.20147705 105.0319519 C115.88078563 115.72487831 119.49307163 126.43918002 123.06640625 137.16796875 C123.28978605 137.83861673 123.51316586 138.50926472 123.74331474 139.20023537 C125.98062119 145.91874195 128.21468819 152.6383179 130.4438467 159.35953236 C131.47198265 162.45877002 132.50162022 165.55750836 133.53125 168.65625 C133.92115616 169.83140671 134.31106232 171.00656342 134.71278381 172.21733093 C137.15033939 179.53650761 139.64938422 186.82965608 142.35070801 194.05627441 C143.53914921 197.30972683 144 199.46243501 144 203 C123.21 203 102.42 203 81 203 C79.185 197.10125 77.37 191.2025 75.5 185.125 C74.92572266 183.26375488 74.35144531 181.40250977 73.75976562 179.48486328 C73.30837189 178.0134144 72.85718569 176.54190182 72.40625 175.0703125 C72.16874023 174.30323975 71.93123047 173.53616699 71.68652344 172.74584961 C70 167.2281436 70 167.2281436 70 165 C49.21 165 28.42 165 7 165 C6.34 168.3 5.68 171.6 5 175 C4.39767871 177.29186907 3.76414463 179.57592275 3.08984375 181.84765625 C2.73986328 183.02908203 2.38988281 184.21050781 2.02929688 185.42773438 C1.66900391 186.62720703 1.30871094 187.82667969 0.9375 189.0625 C0.57333984 190.29677734 0.20917969 191.53105469 -0.16601562 192.80273438 C-2.86816253 201.86816253 -2.86816253 201.86816253 -4 203 C-5.93306498 203.09396057 -7.86958838 203.11743517 -9.80493164 203.11352539 C-11.66674828 203.11341209 -11.66674828 203.11341209 -13.56617737 203.11329651 C-14.9308374 203.10818911 -16.29549702 203.1029731 -17.66015625 203.09765625 C-19.04878183 203.095792 -20.43740807 203.09436813 -21.82603455 203.09336853 C-25.48721115 203.08954387 -29.1483483 203.07971403 -32.80950928 203.06866455 C-36.54292263 203.05844932 -40.27634234 203.05387067 -44.00976562 203.04882812 C-51.33986177 203.03809171 -58.66992536 203.02101591 -66 203 C-63.79200997 194.48035943 -61.15283111 186.13371949 -58.38671875 177.78125 C-57.93598244 176.41311094 -57.485514 175.04488362 -57.03529358 173.67657471 C-56.08273984 170.78317668 -55.12854444 167.8903278 -54.17297363 164.9979248 C-52.66809208 160.44260011 -51.16710264 155.88599935 -49.66699219 151.32910156 C-49.41739431 150.57092258 -49.16779644 149.81274361 -48.91063499 149.03158951 C-48.40816365 147.50526298 -47.90570377 145.97893268 -47.40325546 144.45259857 C-46.65362693 142.17577238 -45.90365122 139.89906081 -45.15359497 137.62237549 C-41.32726496 126.00639098 -37.52797872 114.3818042 -33.75 102.75 C-32.6682775 99.42177458 -31.58618447 96.09366975 -30.50390625 92.765625 C-30.23220612 91.93011108 -29.96050598 91.09459717 -29.68057251 90.23376465 C-26.08627356 79.18532763 -22.47649648 68.14194562 -18.86462402 57.09924316 C-18.0989613 54.75810811 -17.33356602 52.41688558 -16.56848145 50.07556152 C-16.20847046 48.97393677 -15.84845947 47.87231201 -15.47753906 46.73730469 C-15.16584778 45.78329773 -14.85415649 44.82929077 -14.53302002 43.84637451 C-9.73940157 29.21282855 -4.8697835 14.60935051 0 0 Z M37 51 C36.76925781 51.95326172 36.53851562 52.90652344 36.30078125 53.88867188 C35.20199584 58.42613934 34.10111045 62.96309629 33 67.5 C32.79980255 68.32546326 32.5996051 69.15092651 32.39334106 70.00140381 C30.16903681 79.16821328 27.9289122 88.33037966 25.62109375 97.4765625 C25.43503571 98.21489319 25.24897766 98.95322388 25.05728149 99.71392822 C24.17270857 103.22137811 23.28376957 106.72764343 22.38867188 110.23242188 C22.07349609 111.47830078 21.75832031 112.72417969 21.43359375 114.0078125 C21.15572021 115.09723145 20.87784668 116.18665039 20.59155273 117.30908203 C19.89264687 120.02914396 19.89264687 120.02914396 20 123 C32.21 123 44.42 123 57 123 C56.03578125 119.22691406 55.0715625 115.45382812 54.078125 111.56640625 C53.13113008 107.85613531 52.18468063 104.14572562 51.23828125 100.43530273 C50.58715692 97.88372533 49.93547783 95.33228943 49.28320312 92.78100586 C45.73020293 78.88234482 42.1949248 64.98597198 39 51 C38.34 51 37.68 51 37 51 Z " fill="#069CCC" transform="translate(851,367)"/>
<path d="M0 0 C25.41 0 50.82 0 77 0 C84.41926982 21.63953697 91.7880837 43.29070478 99 65 C104.11932554 80.4094333 109.30079602 95.79480029 114.57489014 111.1519165 C118.49879032 122.58543408 122.3599053 134.03914413 126.1796875 145.5078125 C126.51656334 146.51920288 126.51656334 146.51920288 126.86024475 147.55102539 C129.11209484 154.3131817 131.3606295 161.07643291 133.60440636 167.84127235 C134.24042644 169.7582679 134.87707928 171.67505211 135.51394653 173.59176636 C136.29563426 175.94493461 137.07606482 178.29852103 137.85494995 180.65261841 C139.88521555 186.76205151 142.00438127 192.82243011 144.27523804 198.84695435 C145 201 145 201 145 203 C124.21 203 103.42 203 82 203 C76.8925342 191.0825798 73.7256857 178.41895234 70 166 C49.21 165.67 28.42 165.34 7 165 C6.67 167.31 6.34 169.62 6 172 C5.3546932 174.4999142 4.66321985 176.98822556 3.93359375 179.46484375 C3.57064209 180.70613037 3.20769043 181.94741699 2.83374023 183.22631836 C2.37298096 184.7810083 1.91222168 186.33569824 1.4375 187.9375 C-0.026875 192.908125 -1.49125 197.87875 -3 203 C-23.46 203 -43.92 203 -65 203 C-64.29732132 198.08124926 -63.60998729 194.32568988 -62.08911133 189.73730469 C-61.69336914 188.53354691 -61.29762695 187.32978912 -60.88989258 186.08955383 C-60.45403468 184.78362889 -60.01807804 183.47773689 -59.58203125 182.171875 C-59.12820849 180.79824691 -58.67493282 179.42443797 -58.22216797 178.05046082 C-57.25950493 175.13268807 -56.29327905 172.21613041 -55.3241272 169.30050659 C-53.79771145 164.70820771 -52.27931772 160.11328281 -50.76245117 155.51782227 C-49.24298562 150.91548054 -47.7231992 146.31324797 -46.20063782 141.71192932 C-42.36909526 130.13190623 -38.57643966 118.53967992 -34.8125 106.9375 C-30.97206068 95.11181601 -27.11596353 83.29137186 -23.2421875 71.4765625 C-23.03398817 70.84148584 -22.82578884 70.20640919 -22.61128044 69.55208778 C-20.01790208 61.64153977 -17.42278834 53.73156461 -14.8249054 45.82249451 C-9.82566526 30.56532988 -4.91342529 15.28621201 0 0 Z M38 50 C34.13651886 63.393761 30.77582308 76.8850898 27.55078125 90.44555664 C26.74032392 93.85318378 25.92524053 97.25967966 25.109375 100.66601562 C24.58827951 102.84629153 24.06743665 105.02662783 23.546875 107.20703125 C23.18441681 108.72415459 23.18441681 108.72415459 22.81463623 110.27192688 C22.5906012 111.21448837 22.36656616 112.15704987 22.13574219 113.12817383 C21.93986511 113.95102371 21.74398804 114.7738736 21.54217529 115.62165833 C20.9837219 118.07140658 20.49276054 120.53619729 20 123 C32.21 123 44.42 123 57 123 C54.57131414 112.67808511 52.12916295 102.37232714 49.546875 92.08984375 C49.08924774 90.26145714 49.08924774 90.26145714 48.62237549 88.39613342 C47.66604085 84.57630639 46.7080546 80.75689596 45.75 76.9375 C45.09350354 74.31711899 44.43737247 71.69664655 43.78125 69.07617188 C42.188762 62.7171312 40.59492501 56.35842986 39 50 C38.67 50 38.34 50 38 50 Z " fill="#0696C8" transform="translate(257,367)"/>
<path d="M0 0 C20.79 0 41.58 0 63 0 C68.85081005 18.20252016 74.67974191 36.3988621 80.25 54.6875 C80.61040375 55.86947968 80.9708075 57.05145935 81.34213257 58.26925659 C88.33387098 81.26393632 94.64503777 104.41084234 100.62231445 127.68774414 C102.36982917 134.4703821 104.18868155 141.23418557 106 148 C106.23583298 146.96597046 106.47166595 145.93194092 106.71464539 144.86657715 C112.99354848 117.45310173 120.18157877 90.38793473 127.98425293 63.37182617 C129.38337301 58.52058092 130.77244039 53.66645938 132.16210938 48.8125 C133.73090986 43.33372552 135.30031132 37.85514384 136.87837219 32.37902832 C137.11772995 31.54760315 137.35708771 30.71617798 137.60369873 29.85955811 C138.03591543 28.35870513 138.46873051 26.8580242 138.90245056 25.35760498 C141.33055862 16.92175344 143.65018312 8.45934078 146 0 C166.79 0 187.58 0 209 0 C201.8454789 22.7815014 194.59084922 45.52801862 187.25 68.25 C186.81533605 69.59546848 186.3806742 70.94093764 185.9460144 72.28640747 C185.73000234 72.95506301 185.51399027 73.62371855 185.29143238 74.31263638 C184.20328604 77.68104278 183.11525621 81.0494868 182.02734375 84.41796875 C181.70554296 85.41432563 181.70554296 85.41432563 181.37724113 86.43081093 C177.16715213 99.46772645 172.98335318 112.51298063 168.8125 125.5625 C168.33907166 127.04366302 168.33907166 127.04366302 167.8560791 128.55474854 C166.58047136 132.5457419 165.30486513 136.53673575 164.02938843 140.527771 C157.37094277 161.35760884 150.68104536 182.17740863 144 203 C118.92 203 93.84 203 68 203 C65.50530273 196.76325683 63.12107287 190.639965 61.0390625 184.27734375 C60.77252869 183.47217819 60.50599487 182.66701263 60.23138428 181.83744812 C59.65909179 180.10821064 59.08807909 178.37854917 58.51824951 176.64849854 C56.96222522 171.92598873 55.39527806 167.20710761 53.828125 162.48828125 C53.50665497 161.51993347 53.18518494 160.55158569 52.85397339 159.55389404 C49.75173557 150.224421 46.56878161 140.92343894 43.375 131.625 C37.03666901 113.159121 30.8627072 94.63924964 24.70825195 76.11148071 C20.41229974 63.17933662 16.10915488 50.25047209 11.6796875 37.36328125 C11.35027161 36.40428925 11.02085571 35.44529724 10.68145752 34.45724487 C9.17436606 30.07486044 7.66056443 25.69494534 6.13671875 21.31835938 C5.60929469 19.79169441 5.08194601 18.2650034 4.5546875 16.73828125 C4.20614212 15.74868156 4.20614212 15.74868156 3.85055542 14.73908997 C2.1574212 9.81811084 1.14867157 5.16902205 0 0 Z " fill="#06A2CE" transform="translate(0,367)"/>
<path d="M0 0 C58.08 0 116.16 0 176 0 C176 15.18 176 30.36 176 46 C156.2 46 136.4 46 116 46 C116 97.81 116 149.62 116 203 C97.52 203 79.04 203 60 203 C60 151.19 60 99.38 60 46 C40.2 46 20.4 46 0 46 C0 30.82 0 15.64 0 0 Z " fill="#05B9DB" transform="translate(624,367)"/>
<path d="M0 0 C4.62 0 9.24 0 14 0 C13.0625 8.03571429 13.0625 8.03571429 12 12 C13.93742341 12.02703381 15.87495479 12.04641125 17.8125 12.0625 C19.43091797 12.07990234 19.43091797 12.07990234 21.08203125 12.09765625 C24.06512169 12.13624766 24.06512169 12.13624766 27 11 C28.97465189 10.83058542 30.95614037 10.73403379 32.9375 10.6875 C33.97777344 10.65011719 35.01804687 10.61273437 36.08984375 10.57421875 C39 11 39 11 41.31640625 12.70703125 C43.71764108 15.97739053 44.17467895 18.42535788 43.73046875 22.4296875 C43.55128906 23.23664062 43.37210938 24.04359375 43.1875 24.875 C42.90326172 26.17824219 42.90326172 26.17824219 42.61328125 27.5078125 C42.09716698 29.60514311 41.4956428 31.68119065 40.875 33.75 C40.00286695 36.98935133 39.83726522 39.66393696 40 43 C43.28443841 44.15921355 44.7336265 44.10668796 48.00390625 42.796875 C52.09696073 39.91077921 52.39646641 35.6301521 53.25585938 30.95703125 C53.43955078 29.81621094 53.62324219 28.67539062 53.8125 27.5 C54.21477958 25.23957191 54.61712076 22.97915479 55.01953125 20.71875 C55.26860229 19.21731445 55.26860229 19.21731445 55.52270508 17.68554688 C55.92206895 15.43848673 56.44646745 13.2141302 57 11 C61.62 11 66.24 11 71 11 C70.5743489 16.70372473 69.82257362 22.00913879 68.4375 27.5625 C67.14624241 32.9174212 66.54955858 37.50461464 67 43 C67.66 43.66 68.32 44.32 69 45 C73.98133803 44.91833872 76.06162317 44.77865312 79.9375 41.5625 C83.03233192 37.71740579 83.44135246 35.21643201 83.43359375 30.375 C82.78738303 26.83539534 80.80120358 25.13075046 78.34765625 22.625 C77 21 77 21 76.4375 17.8125 C77.09037371 14.54813143 77.44091335 13.15922936 80 11 C84.07250467 9.6336835 86.99948953 9.55296341 90.9375 11.3125 C94.63381419 16.1289094 94.36497014 21.11065307 93.625 26.96875 C91.7974707 35.83226709 87.74882895 43.40011637 80.5 49 C75.04118397 52.44831459 69.40146188 53.56153174 63 53 C57.99881655 51.71210125 54.36272453 50.06329214 51 46 C50.154375 46.78375 49.30875 47.5675 48.4375 48.375 C43.82578527 52.16781212 39.22783452 53.2575099 33.3125 52.9375 C30.22432042 52.45793628 29.02967887 52.02171625 26.4375 50.125 C23.0273879 42.71171284 24.98339702 35.03070649 27.265625 27.52734375 C28.18832796 24.35187134 28.63543367 21.281097 29 18 C27.081875 18.0309375 27.081875 18.0309375 25.125 18.0625 C20.03792983 18.07058755 15.0483853 17.59020789 10 17 C9.896875 18.216875 9.79375 19.43375 9.6875 20.6875 C9.12520899 25.90522982 7.90390449 30.90223486 6.62109375 35.984375 C6.04585378 38.77736405 5.80089965 41.16154375 6 44 C7.00836062 45.23267348 7.00836062 45.23267348 9.06640625 45.09765625 C9.89011719 45.08605469 10.71382812 45.07445312 11.5625 45.0625 C12.38878906 45.05347656 13.21507812 45.04445313 14.06640625 45.03515625 C14.70449219 45.02355469 15.34257813 45.01195312 16 45 C15.67 46.65 15.34 48.3 15 50 C7.68309139 52.74384073 1.43699656 54.0622927 -6 51 C-7.9375 49.4375 -7.9375 49.4375 -9 47 C-9.39908182 39.90054451 -8.26532556 33.7936428 -6.5 26.9375 C-6.26152344 25.97650391 -6.02304687 25.01550781 -5.77734375 24.02539062 C-5.19418428 21.68108957 -4.60162494 19.339617 -4 17 C-6.31 17 -8.62 17 -11 17 C-10.67 15.35 -10.34 13.7 -10 12 C-7.36 12 -4.72 12 -2 12 C-1.855625 10.7625 -1.71125 9.525 -1.5625 8.25 C-1.2271044 5.37518059 -0.70982076 2.83928302 0 0 Z " fill="#029DDB" transform="translate(734,587)"/>
<path d="M0 0 C8.58 0 17.16 0 26 0 C25.67 1.32 25.34 2.64 25 4 C22.36 4.33 19.72 4.66 17 5 C17.0721875 6.22332031 17.144375 7.44664062 17.21875 8.70703125 C17.8792548 20.48544478 18.12009036 32.20445797 18 44 C20.64367042 41.62596251 22.15860781 39.1479302 23.8203125 36.01953125 C24.35180908 35.02695312 24.88330566 34.034375 25.4309082 33.01171875 C25.9899585 31.95597656 26.54900879 30.90023437 27.125 29.8125 C28.28672829 27.6413745 29.4494932 25.47080336 30.61328125 23.30078125 C31.1851416 22.2329541 31.75700195 21.16512695 32.34619141 20.06494141 C34.62079332 15.84950704 36.95397299 11.66893195 39.3125 7.5 C39.69100098 6.83073486 40.06950195 6.16146973 40.45947266 5.47192383 C41.30464588 3.98033549 42.15201839 2.48999353 43 1 C44.98 1 46.96 1 49 1 C50.65 15.52 52.3 30.04 54 45 C61.70247424 30.62989374 61.70247424 30.62989374 68.625 15.9375 C68.96144531 15.18146484 69.29789062 14.42542969 69.64453125 13.64648438 C71.38683033 9.96253386 71.38683033 9.96253386 72 6 C69.69 5.34 67.38 4.68 65 4 C65.33 2.68 65.66 1.36 66 0 C73.92 0 81.84 0 90 0 C89.67 1.32 89.34 2.64 89 4 C87.948125 4.391875 86.89625 4.78375 85.8125 5.1875 C76.53780231 8.80543921 71.89045636 23.69645823 67.625 32.125 C66.18186232 34.96204804 64.73569172 37.79754354 63.2890625 40.6328125 C62.93716858 41.32377014 62.58527466 42.01472778 62.22271729 42.72662354 C58.57635307 49.86833395 54.80033481 56.9393037 51 64 C49.02 64 47.04 64 45 64 C44.42382884 59.03856868 43.85442584 54.07642204 43.29101562 49.11352539 C43.09881965 47.4287471 42.90484359 45.74417081 42.70898438 44.05981445 C42.42618919 41.62503445 42.15001285 39.18957612 41.875 36.75390625 C41.74375732 35.64239952 41.74375732 35.64239952 41.60986328 34.50843811 C41.03185456 29.31126596 40.92765058 24.2295067 41 19 C40.34 19 39.68 19 39 19 C38.72615479 19.71824951 38.45230957 20.43649902 38.17016602 21.17651367 C37.01911798 23.95387033 35.71246517 26.53514814 34.27734375 29.17578125 C33.74262451 30.16191406 33.20790527 31.14804687 32.65698242 32.1640625 C31.80583862 33.72253906 31.80583862 33.72253906 30.9375 35.3125 C30.35911377 36.37597656 29.78072754 37.43945312 29.18481445 38.53515625 C24.53412104 47.067546 19.80648437 55.55449775 15 64 C13.02 64 11.04 64 9 64 C8.94695457 62.97642647 8.94695457 62.97642647 8.89283752 61.93217468 C8.52464336 54.84326624 8.15062598 47.75468221 7.77319336 40.66625977 C7.63301973 38.01920345 7.49434162 35.3720675 7.35717773 32.72485352 C7.1600024 28.92442349 6.95748736 25.12431033 6.75390625 21.32421875 C6.6934462 20.13664474 6.63298615 18.94907074 6.57069397 17.72550964 C6.51070724 16.62459488 6.45072052 15.52368011 6.38891602 14.3894043 C6.33784195 13.41899704 6.28676788 12.44858978 6.23414612 11.44877625 C6.07948439 8.86429811 6.07948439 8.86429811 5 6 C2.49552484 4.78130071 2.49552484 4.78130071 0 4 C0 2.68 0 1.36 0 0 Z " fill="#029DDA" transform="translate(227,979)"/>
<path d="M0 0 C7.26 0 14.52 0 22 0 C29.08232103 12.12166484 35.56416044 24.5249182 42 37 C42.85071324 33.69172102 43.67727949 30.37784131 44.5 27.0625 C44.73847656 26.13630859 44.97695313 25.21011719 45.22265625 24.25585938 C46.67695025 18.33480523 47.25008789 13.09589228 47 7 C45.02 6.01 43.04 5.02 41 4 C41 2.68 41 1.36 41 0 C49.58 0 58.16 0 67 0 C66.67 1.32 66.34 2.64 66 4 C64.04128611 4.97935694 62.12146147 5.4384336 60.0078125 5.99609375 C57.06402478 7.46798761 56.48059024 9.02898171 55 12 C53.92758248 15.47735736 53.11494149 19.00527173 52.30078125 22.55078125 C52.0608696 23.56472458 51.82095795 24.57866791 51.57377625 25.62333679 C50.81196178 28.85122531 50.06208724 32.08175256 49.3125 35.3125 C48.79700983 37.50604421 48.28074262 39.69940596 47.76367188 41.89257812 C46.50010184 47.25963695 45.24631427 52.62890946 44 58 C41.36 58 38.72 58 36 58 C35.58226318 57.21987549 35.16452637 56.43975098 34.73413086 55.63598633 C33.14814904 52.67433433 31.56203184 49.71275491 29.97583008 46.7512207 C29.29609037 45.48204294 28.61640091 44.21283825 27.93676758 42.94360352 C27.27645123 41.71045907 26.61602009 40.47737609 25.95547485 39.24435425 C25.29463191 38.01035052 24.63429309 36.7760767 23.97445679 35.54153442 C22.31189318 32.4338379 20.6381132 29.33312504 18.94189453 26.24365234 C18.61580704 25.64695236 18.28971954 25.05025238 17.95375061 24.43547058 C17.05619255 22.7947946 16.15432686 21.15647731 15.25219727 19.51831055 C14 17 14 17 14 15 C13.34 15 12.68 15 12 15 C11.9175 16.134375 11.835 17.26875 11.75 18.4375 C11.24193273 23.23001511 10.11025602 27.77610129 8.9375 32.4375 C7.35361028 38.78834202 6.58189484 44.41484365 7 51 C8.98 51.66 10.96 52.32 13 53 C13 54.32 13 55.64 13 57 C4.75 57 -3.5 57 -12 57 C-11.67 55.68 -11.34 54.36 -11 53 C-9.9275 52.855625 -8.855 52.71125 -7.75 52.5625 C-5.35412434 51.8604053 -4.28572502 51.42252145 -2.87304688 49.33349609 C-0.06342967 42.73878444 1.67414441 36.04530909 3.25 29.0625 C3.518125 27.94681641 3.78625 26.83113281 4.0625 25.68164062 C5.59447742 19.01050425 6.38279066 12.84286629 6 6 C4.02 5.34 2.04 4.68 0 4 C0 2.68 0 1.36 0 0 Z " fill="#029DDB" transform="translate(616,581)"/>
<path d="M0 0 C1.11375 0.28875 2.2275 0.5775 3.375 0.875 C3.705 0.545 4.035 0.215 4.375 -0.125 C6.04117115 -0.16563832 7.70888095 -0.167721 9.375 -0.125 C8.80478625 6.83160771 7.36197306 13.18927305 5.375 19.875 C3.00390625 19.7109375 3.00390625 19.7109375 0.375 18.875 C-0.84765625 16.4765625 -0.84765625 16.4765625 -1.6875 13.5 C-2.90119268 9.2604652 -3.75675003 7.14005892 -7.625 4.875 C-11.55483864 3.65238354 -13.40795199 3.80626813 -17.375 5.0625 C-20.58707565 6.58562188 -20.58707565 6.58562188 -22.125 8.75 C-22.82943673 11.7438561 -22.88293018 13.00971458 -21.625 15.875 C-17.50264652 19.48065523 -12.47200804 21.38605855 -7.4375 23.375 C-2.04788033 25.53220888 1.70052012 27.52604023 4.375 32.875 C5.10048568 40.04660434 4.75818689 45.07023898 0.375 50.875 C-7.45306894 58.29106531 -15.6210915 59.15297008 -25.953125 59.109375 C-31.10125286 58.78077109 -35.76190468 57.54234697 -40.625 55.875 C-41.12 56.37 -41.12 56.37 -41.625 56.875 C-43.605 56.875 -45.585 56.875 -47.625 56.875 C-46.305 49.945 -44.985 43.015 -43.625 35.875 C-41.975 35.875 -40.325 35.875 -38.625 35.875 C-38.32207031 36.69484375 -38.01914062 37.5146875 -37.70703125 38.359375 C-37.28808594 39.43703125 -36.86914062 40.5146875 -36.4375 41.625 C-36.03144531 42.69234375 -35.62539063 43.7596875 -35.20703125 44.859375 C-32.92304109 49.21305501 -30.26237471 51.32920843 -25.625 52.875 C-20.26533849 53.22078461 -17.00591432 53.32662946 -12.625 49.875 C-11.06069752 46.74639505 -11.26872716 44.31897075 -11.625 40.875 C-15.75799274 36.76557946 -20.72160393 35.12026438 -26.09765625 33.25195312 C-30.64544082 31.56605723 -33.5094657 29.58922839 -36.625 25.875 C-38.23871538 21.03385385 -38.60189633 15.68888617 -36.90625 10.8046875 C-33.40028082 4.2734062 -28.40059993 1.37127366 -21.625 -1.125 C-14.60066752 -3.04072704 -6.94713122 -1.83674153 0 0 Z " fill="#029DDB" transform="translate(1040.625,581.125)"/>
<path d="M0 0 C-0.64483861 7.65643821 -2.26199998 14.91399528 -4.0625 22.375 C-4.61884845 24.69460383 -5.17237284 27.01488737 -5.72265625 29.3359375 C-6.09015991 30.86033447 -6.09015991 30.86033447 -6.46508789 32.41552734 C-7.10133798 35.04974827 -7.10133798 35.04974827 -7 38 C-6.56655273 37.5560791 -6.13310547 37.1121582 -5.68652344 36.65478516 C-3.71298571 34.63958268 -1.73161696 32.63225711 0.25 30.625 C0.93191406 29.92632813 1.61382813 29.22765625 2.31640625 28.5078125 C2.98027344 27.8375 3.64414062 27.1671875 4.328125 26.4765625 C4.9355957 25.85861816 5.54306641 25.24067383 6.16894531 24.60400391 C9.01586655 22.1101009 11.24486114 21.09439236 15 20.625 C18 21 18 21 20.375 22.625 C22.4753727 25.69477548 22.53293835 27.34556561 22 31 C20.875 33.3125 20.875 33.3125 19 35 C14.48898245 36.37291839 12.23133855 35.73593376 8 34 C6.32298779 34.27662057 4.65289028 34.60396639 3 35 C6.63615584 45.89265944 6.63615584 45.89265944 12 56 C14.97 56 17.94 56 21 56 C20.67 57.65 20.34 59.3 20 61 C13.34725667 63.16458744 7.86689789 64.89431666 1 63 C-4.49579417 59.165725 -6.5271932 53.0083944 -9 47 C-10.36988146 50.23269099 -11.3754402 53.30892741 -12.0625 56.75 C-12.89233954 60.89233954 -12.89233954 60.89233954 -14 62 C-16.35313555 62.07271741 -18.70833668 62.08370868 -21.0625 62.0625 C-22.35285156 62.05347656 -23.64320313 62.04445313 -24.97265625 62.03515625 C-25.97167969 62.02355469 -26.97070312 62.01195312 -28 62 C-26.15055757 52.98253226 -24.23861145 43.98310203 -22.17578125 35.01171875 C-22.01762436 34.32160202 -21.85946747 33.63148529 -21.69651794 32.92045593 C-20.89994139 29.44595214 -20.09769943 25.97291305 -19.28686523 22.50170898 C-18.9878848 21.20171388 -18.68912834 19.90166724 -18.390625 18.6015625 C-18.12282227 17.44994629 -17.85501953 16.29833008 -17.57910156 15.11181641 C-17.05813034 12.31236479 -16.88191531 9.83602264 -17 7 C-18.98 6.34 -20.96 5.68 -23 5 C-22.67 3.68 -22.34 2.36 -22 1 C-14.66236293 -0.17402193 -7.41834582 -0.09377123 0 0 Z " fill="#029DDB" transform="translate(953,576)"/>
<path d="M0 0 C4.62 0 9.24 0 14 0 C13.0625 8.03571429 13.0625 8.03571429 12 12 C18.46841444 12.21054514 23.76973844 11.91700356 30 10 C33.76049161 9.67581969 36.2811 9.72841556 39.8125 11.0625 C42.7569009 13.67039794 43.62885326 16.17597515 44 20 C43.51008604 24.01947997 42.55233713 27.88999407 41.5625 31.8125 C41.05799013 33.88010091 40.55899471 35.9490578 40.06640625 38.01953125 C39.83896729 38.92807861 39.61152832 39.83662598 39.37719727 40.77270508 C38.76939564 43.0306929 38.76939564 43.0306929 40 45 C42.64 45 45.28 45 48 45 C47.67 46.65 47.34 48.3 47 50 C40.60535224 52.31937019 35.68561888 53.72903936 29 52 C25.780546 49.85369733 25.13263001 48.5913994 24.28515625 44.8125 C23.96783388 40.56994332 24.6419067 37.68145174 25.875 33.625 C27.5001306 28.06189376 28.59387478 22.78728446 29 17 C27.72125 17.185625 26.4425 17.37125 25.125 17.5625 C19.97248934 18.15229454 15.12014627 17.69480064 10 17 C9.896875 18.216875 9.79375 19.43375 9.6875 20.6875 C9.12520899 25.90522982 7.90390449 30.90223486 6.62109375 35.984375 C6.04585378 38.77736405 5.80089965 41.16154375 6 44 C7.00836062 45.23267348 7.00836062 45.23267348 9.06640625 45.09765625 C9.89011719 45.08605469 10.71382812 45.07445312 11.5625 45.0625 C12.38878906 45.05347656 13.21507812 45.04445313 14.06640625 45.03515625 C14.70449219 45.02355469 15.34257813 45.01195312 16 45 C15.67 46.65 15.34 48.3 15 50 C7.59769828 52.77586315 1.54334347 53.95817391 -6 51 C-8.09570592 49.37942647 -8.90115299 48.54226453 -9.38085938 45.91064453 C-9.27862012 39.29065281 -8.16200496 33.27147313 -6.5 26.875 C-6.14228516 25.44027344 -6.14228516 25.44027344 -5.77734375 23.9765625 C-5.19525501 21.64820754 -4.60273122 19.32308002 -4 17 C-6.31 17 -8.62 17 -11 17 C-10.67 15.35 -10.34 13.7 -10 12 C-7.36 12 -4.72 12 -2 12 C-1.855625 10.7625 -1.71125 9.525 -1.5625 8.25 C-1.2271044 5.37518059 -0.70982076 2.83928302 0 0 Z " fill="#029EDB" transform="translate(1198,587)"/>
<path d="M0 0 C0.33 -0.33 0.66 -0.66 1 -1 C2.66617115 -1.04063832 4.33388095 -1.042721 6 -1 C5.3588567 2.2925983 4.71129104 5.58390083 4.0625 8.875 C3.88009766 9.81214844 3.69769531 10.74929688 3.50976562 11.71484375 C3.33251953 12.61074219 3.15527344 13.50664063 2.97265625 14.4296875 C2.81031494 15.25710449 2.64797363 16.08452148 2.48071289 16.93701172 C2 19 2 19 1 21 C-0.32 21 -1.64 21 -3 21 C-3.17015625 20.10796875 -3.3403125 19.2159375 -3.515625 18.296875 C-3.75796875 17.12640625 -4.0003125 15.9559375 -4.25 14.75 C-4.59804688 13.00976562 -4.59804688 13.00976562 -4.953125 11.234375 C-6.08187703 7.74703664 -7.18925784 6.28781339 -10 4 C-13.06429776 2.46785112 -15.6165642 2.77061452 -19 3 C-22.45645946 4.41400614 -23.76662994 5.65772391 -25.875 8.75 C-27.29541791 12.85342952 -27.42442814 14.87665537 -26 19 C-21.62099894 23.10673156 -15.76902509 24.92432853 -10.265625 27.04296875 C-6.0294564 28.8323848 -3.65937321 30.97683468 -1.1875 34.8125 C1.21540548 41.26240419 0.04826448 46.48791042 -2.61328125 52.6328125 C-6.12795485 58.63250885 -12.20999964 61.66302037 -18.7265625 63.53125 C-26.11578306 65.05480063 -32.41387028 63.59833231 -39.59375 61.55859375 C-40.3878125 61.37425781 -41.181875 61.18992187 -42 61 C-42.495 61.495 -42.495 61.495 -43 62 C-44.66617115 62.04063832 -46.33388095 62.042721 -48 62 C-46.92373883 54.59211729 -45.72864339 47.28499714 -44 40 C-42.35 40 -40.7 40 -39 40 C-38.84144531 40.80824219 -38.68289063 41.61648438 -38.51953125 42.44921875 C-36.73737731 50.9395325 -36.73737731 50.9395325 -31 57 C-25.96080822 58.67973059 -21.64122002 58.55739548 -16.6875 56.875 C-13.31153703 54.519677 -12.25735534 52.91999017 -11 49 C-11.02182892 45.15811075 -11.78453885 41.64638344 -13 38 C-14.97820098 37.27118911 -16.98654801 36.62486441 -19 36 C-33.84346565 30.03178162 -33.84346565 30.03178162 -37.4375 23.3125 C-38.54042258 16.81751147 -38.23711169 11.17429664 -34.4375 5.625 C-25.27190525 -5.28117645 -12.36023793 -3.75500899 0 0 Z " fill="#029CD9" transform="translate(790,980)"/>
<path d="M0 0 C1.53333984 -0.04253906 1.53333984 -0.04253906 3.09765625 -0.0859375 C5.9375 0.375 5.9375 0.375 8.28125 2.05078125 C11.36448928 6.37749675 10.47231415 11.28504462 9.9375 16.375 C9.27674534 19.25966605 8.47812659 22.05589275 7.60546875 24.8828125 C6.72035619 28.1851623 6.71118135 30.98022024 6.9375 34.375 C8.8246875 33.7871875 8.8246875 33.7871875 10.75 33.1875 C11.45769531 32.96707031 12.16539063 32.74664063 12.89453125 32.51953125 C16.4652615 30.51910302 17.67874653 27.23262142 18.82885742 23.4206543 C19.06451416 22.35758057 19.3001709 21.29450684 19.54296875 20.19921875 C19.80400391 19.04228516 20.06503906 17.88535156 20.33398438 16.69335938 C20.59501953 15.49517578 20.85605469 14.29699219 21.125 13.0625 C21.39763672 11.84498047 21.67027344 10.62746094 21.95117188 9.37304688 C22.62122037 6.37546151 23.28041956 3.37545468 23.9375 0.375 C28.5575 0.375 33.1775 0.375 37.9375 0.375 C37.47877306 7.59994923 36.1190101 14.3213807 34.30957031 21.30834961 C33.27078155 25.43348463 32.7281918 29.08080595 32.9375 33.375 C35.99013664 34.35620464 37.88486336 34.35620464 40.9375 33.375 C40.8125 35.6875 40.8125 35.6875 39.9375 38.375 C35.53028277 41.73840262 30.93701903 41.92955976 25.57421875 41.8125 C21.4740111 41.13216925 19.71893898 39.38196106 16.9375 36.375 C16.48761719 36.72433594 16.03773437 37.07367187 15.57421875 37.43359375 C9.9542446 41.4092468 4.83172631 42.75320991 -2.0625 42.375 C-5.21112895 41.15410306 -6.46149233 40.363554 -8.1953125 37.51171875 C-10.69289284 31.35777079 -7.35949135 23.29023043 -5.76171875 17.1953125 C-4.94995777 13.92105872 -4.44298633 10.72327975 -4.0625 7.375 C-7.0325 7.375 -10.0025 7.375 -13.0625 7.375 C-12.375 5 -12.375 5 -11.0625 2.375 C-7.36425412 0.46030532 -4.13345023 0.05225601 0 0 Z " fill="#029DDA" transform="translate(1142.0625,597.625)"/>
<path d="M0 0 C2.59898174 2.67773876 3.02438409 3.49132293 3.25 7.2421875 C3.04444654 11.49885698 2.20442874 15.16837632 1.0625 19.25 C-0.135188 23.57948026 -1.21995186 27.58811706 -0.9375 32.125 C2.11513664 33.10620464 4.00986336 33.10620464 7.0625 32.125 C7.0625 33.775 7.0625 35.425 7.0625 37.125 C1.16251909 40.27165649 -4.27761526 41.18196168 -10.9375 40.125 C-14.125 38.1875 -14.125 38.1875 -15.9375 35.125 C-17.22049269 28.90058003 -15.23507591 22.92818951 -13.60546875 16.9453125 C-12.79330272 13.51616705 -12.69893911 10.62389307 -12.9375 7.125 C-18.2461849 7.70674845 -18.2461849 7.70674845 -22.9375 10.125 C-24.00754314 13.10948563 -24.00754314 13.10948563 -24.76171875 16.6640625 C-24.98840996 17.62534561 -24.98840996 17.62534561 -25.21968079 18.60604858 C-25.69935617 20.65160618 -26.16233386 22.70053547 -26.625 24.75 C-26.94747464 26.13827519 -27.27102955 27.52629992 -27.59570312 28.9140625 C-28.39093252 32.31463425 -29.16346843 35.7192611 -29.9375 39.125 C-34.8875 39.125 -39.8375 39.125 -44.9375 39.125 C-44.504375 37.23394531 -44.07125 35.34289062 -43.625 33.39453125 C-43.06221956 30.90891765 -42.49973497 28.42323704 -41.9375 25.9375 C-41.50824219 24.06868164 -41.50824219 24.06868164 -41.0703125 22.16210938 C-40.79960938 20.96005859 -40.52890625 19.75800781 -40.25 18.51953125 C-39.99863281 17.41456299 -39.74726562 16.30959473 -39.48828125 15.17114258 C-38.98761884 12.4021865 -38.82799873 9.92868889 -38.9375 7.125 C-41.70014289 6.52767181 -44.09782769 6.125 -46.9375 6.125 C-46.6075 4.475 -46.2775 2.825 -45.9375 1.125 C-40.2010352 -1.42453991 -34.0993803 -1.76265548 -27.9375 -0.875 C-25.50873589 0.56817867 -24.58639527 1.76943533 -22.9375 4.125 C-22.40640625 3.77566406 -21.8753125 3.42632813 -21.328125 3.06640625 C-20.62171875 2.61136719 -19.9153125 2.15632812 -19.1875 1.6875 C-18.49140625 1.23503906 -17.7953125 0.78257812 -17.078125 0.31640625 C-11.67334875 -2.69172652 -5.25849893 -3.35648868 0 0 Z " fill="#029DDB" transform="translate(1345.9375,598.875)"/>
<path d="M0 0 C16.5 0 33 0 50 0 C49.01 4.95 48.02 9.9 47 15 C45.35 15.33 43.7 15.66 42 16 C41.81824219 15.37351562 41.63648438 14.74703125 41.44921875 14.1015625 C41.19785156 13.28429687 40.94648438 12.46703125 40.6875 11.625 C40.44386719 10.81289063 40.20023437 10.00078125 39.94921875 9.1640625 C39.08631815 6.66815371 39.08631815 6.66815371 36 5 C34.06862318 4.72643157 34.06862318 4.72643157 31.98828125 4.8046875 C31.23095703 4.81113281 30.47363281 4.81757812 29.69335938 4.82421875 C28.90767578 4.84097656 28.12199219 4.85773437 27.3125 4.875 C26.51521484 4.88402344 25.71792969 4.89304687 24.89648438 4.90234375 C22.930861 4.92588415 20.96539225 4.96175453 19 5 C18.85377197 5.65597168 18.70754395 6.31194336 18.55688477 6.98779297 C17.89478972 9.95080618 17.22869581 12.91290623 16.5625 15.875 C16.33240234 16.90753906 16.10230469 17.94007813 15.86523438 19.00390625 C15.53168945 20.48310547 15.53168945 20.48310547 15.19140625 21.9921875 C14.88505249 23.35899658 14.88505249 23.35899658 14.57250977 24.75341797 C14 27 14 27 13 29 C21.08527401 28.26186915 21.08527401 28.26186915 28.125 24.625 C29.67765248 22.45128653 30.99378099 20.4698103 32 18 C33.32 18 34.64 18 36 18 C35.35215814 23.94650633 34.28016565 29.67387483 32.9375 35.5 C32.75123047 36.32242188 32.56496094 37.14484375 32.37304688 37.9921875 C31.91879115 39.9955717 31.45988401 41.9979003 31 44 C29.35 44 27.7 44 26 44 C25.8046875 41.98177083 25.609375 39.96354167 25.4140625 37.9453125 C25.13625251 35.77331755 25.13625251 35.77331755 23 34 C20.33757179 33.53709779 20.33757179 33.53709779 17.375 33.375 C16.37210937 33.30023437 15.36921875 33.22546875 14.3359375 33.1484375 C13.56507813 33.09945312 12.79421875 33.05046875 12 33 C11.87882812 33.68964844 11.75765625 34.37929688 11.6328125 35.08984375 C10.80679514 39.72189493 9.94479616 44.30730187 8.8125 48.875 C8.03981176 52.21133605 7.92597009 54.67050727 9 58 C10.98 58.66 12.96 59.32 15 60 C14.67 60.99 14.34 61.98 14 63 C4.76 63 -4.48 63 -14 63 C-13.67 62.01 -13.34 61.02 -13 60 C-11.741875 59.7525 -10.48375 59.505 -9.1875 59.25 C-6.16714814 58.14146661 -5.22293804 57.47039926 -3.828125 54.52734375 C-2.96826265 51.30285994 -2.25212044 48.08882518 -1.59521484 44.81835938 C-0.86847328 41.37721721 -0.04049602 37.96329513 0.79296875 34.546875 C1.44694103 31.8441419 2.09863471 29.14086241 2.75 26.4375 C2.91106232 25.77189056 3.07212463 25.10628113 3.23806763 24.42050171 C3.70239239 22.48908774 4.15603636 20.55511585 4.609375 18.62109375 C4.87717773 17.4911499 5.14498047 16.36120605 5.42089844 15.19702148 C5.9902037 12.05408201 6.10706875 9.18589693 6 6 C4.02 5.34 2.04 4.68 0 4 C0 2.68 0 1.36 0 0 Z " fill="#029DDB" transform="translate(381,979)"/>
<path d="M0 0 C2.97 0 5.94 0 9 0 C8.34 3.96 7.68 7.92 7 12 C16.09362164 13.24744216 16.09362164 13.24744216 25 12 C26.9375 11.796875 26.9375 11.796875 29 11.75 C29.680625 11.72421875 30.36125 11.6984375 31.0625 11.671875 C33.62764767 12.10629517 34.37942983 12.99462917 36 15 C37.28313161 21.42059316 35.23066155 27.97881278 33.5 34.125 C31.88536728 39.91149457 30.67326845 44.97180295 31 51 C33.64 51.33 36.28 51.66 39 52 C39 53.32 39 54.64 39 56 C33.94657731 58.12775692 28.42258902 59.10131756 23 58 C21.00113721 56.04872918 20.08836395 54.81455492 19.78515625 52.01953125 C20.58755812 45.63422059 21.98182185 39.45802911 23.62719727 33.24145508 C24.86974478 28.36176665 25.1754509 24.03713875 25 19 C23.2984375 19.0309375 23.2984375 19.0309375 21.5625 19.0625 C18 19 18 19 17 18 C14.98035801 17.92755947 12.95832876 17.91622812 10.9375 17.9375 C9.83277344 17.94652344 8.72804688 17.95554687 7.58984375 17.96484375 C6.73519531 17.97644531 5.88054688 17.98804688 5 18 C4.83564453 18.96486328 4.83564453 18.96486328 4.66796875 19.94921875 C3.74146325 25.22954684 2.66822094 30.42147121 1.375 35.625 C0.11481778 40.9253644 -0.27615209 45.56900894 0 51 C3.3 51 6.6 51 10 51 C10 52.65 10 54.3 10 56 C4.33311698 58.51861468 -1.90058391 58.81853636 -8 58 C-10.04560509 56.44417485 -10.89208726 55.5420764 -11.3984375 52.99853516 C-11.32338783 45.52327547 -9.79080732 38.61082956 -8 31.375 C-7.71382812 30.18003906 -7.42765625 28.98507812 -7.1328125 27.75390625 C-6.43188084 24.83335768 -5.72077835 21.91570179 -5 19 C-7.31 18.67 -9.62 18.34 -12 18 C-11.67 16.35 -11.34 14.7 -11 13 C-8.36 13 -5.72 13 -3 13 C-2.01 8.71 -1.02 4.42 0 0 Z " fill="#029DDB" transform="translate(933,985)"/>
<path d="M0 0 C3.5404293 3.23141428 5.75233138 6.52331383 6.23828125 11.3828125 C6.45359442 19.33806751 5.42574026 25.29304225 -0.09375 31.265625 C-7.79629751 38.40331903 -14.5386971 40.08676436 -25 40 C-31.06392752 39.01594159 -35.09250343 36.85476846 -39 32 C-42.15903023 26.78315078 -41.73996742 20.58169104 -40.53515625 14.75 C-38.32414705 8.05155791 -34.19565065 2.90757713 -27.9375 -0.375 C-19.6096763 -4.29197229 -8.03010034 -4.91638797 0 0 Z M-20.57421875 4.375 C-25.51257681 10.00337521 -26.14645808 18.48370665 -26.1875 25.625 C-26.20167969 26.75164063 -26.21585938 27.87828125 -26.23046875 29.0390625 C-26.22793393 32.18726298 -26.22793393 32.18726298 -24 35 C-22.1935345 36.0146239 -22.1935345 36.0146239 -20 36 C-15.15812615 34.06325046 -13.02424707 30.61752212 -11 26 C-8.6944097 19.31378813 -7.90476276 12.01694364 -9 5 C-10.70659016 2.5526811 -10.70659016 2.5526811 -13 1 C-16.55475134 1 -17.94420098 2.07781326 -20.57421875 4.375 Z " fill="#029DDB" transform="translate(1290,600)"/>
<path d="M0 0 C3.5404293 3.23141428 5.75233138 6.52331383 6.23828125 11.3828125 C6.45359442 19.33806751 5.42574026 25.29304225 -0.09375 31.265625 C-7.79629751 38.40331903 -14.5386971 40.08676436 -25 40 C-31.06392752 39.01594159 -35.09250343 36.85476846 -39 32 C-42.04002373 27.00875536 -41.67432127 21.65178546 -41 16 C-38.39615079 7.89789409 -34.23356426 3.41917958 -26.9375 -0.75 C-18.74216104 -4.23737828 -7.80101326 -4.77613057 0 0 Z M-20 3 C-21.52422531 5.21147742 -21.52422531 5.21147742 -22.6875 7.8125 C-23.10386719 8.66457031 -23.52023437 9.51664063 -23.94921875 10.39453125 C-25.93245544 15.31207352 -26.15947604 19.84528591 -26.1875 25.125 C-26.20167969 26.34445312 -26.21585938 27.56390625 -26.23046875 28.8203125 C-26.25129134 32.15725283 -26.25129134 32.15725283 -24 35 C-22.1935345 36.0146239 -22.1935345 36.0146239 -20 36 C-15.15812615 34.06325046 -13.02424707 30.61752212 -11 26 C-8.6944097 19.31378813 -7.90476276 12.01694364 -9 5 C-10.70659016 2.5526811 -10.70659016 2.5526811 -13 1 C-16.20424971 1 -17.36566137 1.26975392 -20 3 Z " fill="#029DDB" transform="translate(872,600)"/>
<path d="M0 0 C3.92530875 3.16253041 6.23469329 6.34332827 7 11.375 C7.32774447 19.09665976 5.70358759 25.19429376 0.765625 31.2109375 C-5.39397894 37.4523061 -12.39509127 39.63453105 -20.9375 40.3125 C-26.15888909 40.13776848 -31.49987971 39.05713781 -35.609375 35.67578125 C-40.02879958 30.72342606 -41.23196203 26.09424161 -40.9375 19.625 C-40.00113679 11.69281969 -36.14273701 6.16192776 -29.9375 1.25390625 C-21.38520886 -4.28094346 -8.88128462 -5.44899777 0 0 Z M-18.5625 2.25 C-24.66357945 9.13326912 -25.50439436 17.97032963 -26.21484375 26.8359375 C-25.97214999 30.41015476 -25.14062963 32.16302097 -23 35 C-21.16666667 36.16666667 -21.16666667 36.16666667 -19 36 C-14.4991289 34.31217334 -12.75513001 31.57225949 -10.84765625 27.37890625 C-8.32880105 20.309861 -6.25256336 11.23063609 -9.1875 4.125 C-10.85649332 1.86016652 -10.85649332 1.86016652 -13.375 0.9375 C-16.08173001 0.81944608 -16.08173001 0.81944608 -18.5625 2.25 Z " fill="#029DDA" transform="translate(1091,600)"/>
<path d="M0 0 C2 3 2 3 1.75 6.0625 C1 9 1 9 -1 11 C-4.87808937 11.43089882 -7.10230714 11.65507317 -10.3125 9.3125 C-12.04279365 6.94135685 -13.07426773 4.77719681 -14 2 C-15.65 2.33 -17.3 2.66 -19 3 C-19 5.64 -19 8.28 -19 11 C-18.34773438 11.17015625 -17.69546875 11.3403125 -17.0234375 11.515625 C-5.60775862 14.68103448 -5.60775862 14.68103448 -1.625 19.75 C-0.35471245 24.32303517 -0.37208676 28.3748128 -2.0625 32.75 C-5.84402046 37.14144312 -10.32730473 39.12598473 -16 40 C-23.66427762 40.54971371 -31.47692687 40.79186038 -37.69140625 35.58203125 C-39 34 -39 34 -39.375 31 C-39 28 -39 28 -37.9375 26.125 C-34.84902396 24.33169133 -32.48856031 24.57158031 -29 25 C-26.07592659 27.21281231 -24.32198287 29.58487757 -23 33 C-23 33.99 -23 34.98 -23 36 C-20.69 35.01 -18.38 34.02 -16 33 C-16 31.02 -16 29.04 -16 27 C-17.175625 26.4225 -18.35125 25.845 -19.5625 25.25 C-21.04269402 24.50202962 -22.52184764 23.75199709 -24 23 C-24.98226563 22.51466797 -24.98226563 22.51466797 -25.984375 22.01953125 C-29.96687914 19.93467331 -32.33170392 18.21980773 -34 14 C-34.39774284 10.28773348 -34.31191486 7.78896113 -32.9375 4.3125 C-25.0050146 -5.15530515 -10.3672532 -5.08937884 0 0 Z " fill="#029DDB" transform="translate(1393,600)"/>
<path d="M0 0 C2.44002706 2.44002706 2.40389518 3.3732523 2.5625 6.75 C2.49488078 9.67875743 2.37714604 11.4307452 0.75 13.88671875 C-6.23401091 20.30489544 -14.8913652 21.35854685 -24 22 C-23.34 24.97 -22.68 27.94 -22 31 C-15.78365485 32.16556472 -12.21304511 32.22645675 -6.62890625 29.203125 C-4.7038462 27.92380293 -4.7038462 27.92380293 -3 25 C-1.68 25.66 -0.36 26.32 1 27 C0.25842197 31.29188287 -1.61242917 32.94394801 -4.9140625 35.60546875 C-10.96204922 39.64878571 -17.83414583 40.91641474 -25 40 C-31.21345325 38.65655065 -34.42104088 36.20575872 -38 31 C-40.24336196 24.26991413 -39.9158963 17.06028905 -36.9375 10.625 C-33.02242037 3.79280222 -28.05751845 -0.35339062 -20.4609375 -2.53125 C-13.05469855 -3.94196218 -6.62822336 -3.66667675 0 0 Z M-18.4375 3 C-22.39561404 7.63388961 -24 11.91697837 -24 18 C-22.55989519 17.74337755 -21.1229313 17.46909179 -19.6875 17.1875 C-18.88699219 17.03667969 -18.08648438 16.88585937 -17.26171875 16.73046875 C-14.70179149 15.90368741 -13.63275264 15.11802897 -12 13 C-10.96532958 9.00912836 -10.61398061 6.86394817 -12.3125 3.0625 C-12.869375 2.381875 -13.42625 1.70125 -14 1 C-16.2678088 0.78856113 -16.2678088 0.78856113 -18.4375 3 Z " fill="#029DDA" transform="translate(716,600)"/>
<path d="M0 0 C2 2 2 2 2.375 5.5625 C2.28452049 11.14508585 0.7914044 16.36273222 -0.56567383 21.74243164 C-1.85174894 26.97223778 -2.48277789 31.59288765 -2 37 C-0.91526588 38.2916351 -0.91526588 38.2916351 1.6875 38.3125 C5.99921256 37.90573466 7.79378169 36.92122113 11 34 C14.18662247 27.15170698 15.47843308 19.25061845 17.1875 11.9375 C17.46013672 10.78572266 17.73277344 9.63394531 18.01367188 8.44726562 C18.67943999 5.63235131 19.34145913 2.81661221 20 0 C22.97 0 25.94 0 29 0 C28.23407812 7.46553738 26.52777888 14.59082813 24.72851562 21.8671875 C23.4133858 27.40376902 22.73827251 32.30910479 23 38 C25.64 38.33 28.28 38.66 31 39 C30.04254012 41.61125422 29.34378312 42.79164659 26.9375 44.25 C22.90918768 45.27850527 19.11695928 45.7911321 15 45 C12.4375 42.5 12.4375 42.5 11 40 C10.5153125 40.34933594 10.030625 40.69867187 9.53125 41.05859375 C4.57399436 44.42380768 1.02327328 45.90125782 -5 46 C-7.97370268 45.2730949 -9.51247829 44.42027734 -11.8125 42.4375 C-15.20768982 35.46842617 -12.33408986 27.38808045 -10.51147461 20.29223633 C-9.29470494 15.53046032 -8.52248466 10.88935642 -8 6 C-10.64 6 -13.28 6 -16 6 C-16 4.68 -16 3.36 -16 2 C-10.34125577 -0.27119666 -6.11019598 -1.6210724 0 0 Z " fill="#029DDA" transform="translate(529,998)"/>
<path d="M0 0 C1.69921875 2.5625 1.69921875 2.5625 3 5 C3.90878906 4.3503125 3.90878906 4.3503125 4.8359375 3.6875 C10.22627584 0.10499821 14.31612007 -1.87987472 20.86328125 -1.46875 C23.90067652 -0.802411 25.27748987 0.45368068 27 3 C29.94653941 8.89307882 27.13060159 16.1262288 25.5 22.0625 C23.32571125 29.90146625 23.32571125 29.90146625 23 38 C25.64 38 28.28 38 31 38 C30.67 39.65 30.34 41.3 30 43 C25.04604869 44.98158052 21.26149114 45.50917656 16 45 C13.4375 43.625 13.4375 43.625 12 41 C11.53404114 34.99032545 13.44032221 29.21781781 15.0625 23.5 C16.7517716 17.49302337 17.52642089 12.21469105 17 6 C12.21136074 5.40142009 8.75059443 6.28595474 4.8203125 8.9609375 C1.17970449 13.03904347 0.49495576 18.53223569 -0.546875 23.75585938 C-1.03531264 26.17488887 -1.57510805 28.57859773 -2.125 30.984375 C-3.11272299 35.3168872 -4.0645056 39.65592227 -5 44 C-8.3 44 -11.6 44 -15 44 C-14.57669753 41.98447861 -14.15326496 39.96898448 -13.72924805 37.95361328 C-13.36622111 36.22567706 -13.00441688 34.49748353 -12.64379883 32.76904297 C-11.80688179 28.76982022 -10.95933377 24.77603415 -10.03125 20.796875 C-9.61359375 18.97929688 -9.61359375 18.97929688 -9.1875 17.125 C-8.93355469 16.05507813 -8.67960937 14.98515625 -8.41796875 13.8828125 C-7.98938889 10.9268131 -8.22328456 8.86380796 -9 6 C-11.31 6 -13.62 6 -16 6 C-15.7265625 4.11328125 -15.7265625 4.11328125 -15 2 C-10.40884585 -1.10182853 -5.23069033 -1.64100089 0 0 Z " fill="#029DDA" transform="translate(1041,998)"/>
<path d="M0 0 C2 2 2 2 2 5 C2.67804687 4.566875 3.35609375 4.13375 4.0546875 3.6875 C10.31833781 -0.06027969 15.6196515 -2.64617439 23 -1 C25.57637471 0.88515223 26.59667428 2.19334857 28 5 C28.40538034 11.47160754 27.223462 16.9112208 25.5 23.125 C23.32507562 30.93169065 23.32507562 30.93169065 23 39 C27.455 38.505 27.455 38.505 32 38 C31.13362193 40.99294243 30.61361992 42.6095146 27.9375 44.3125 C23.96644763 45.24189523 20.05637909 45.51654266 16 45 C13 43 13 43 12.16015625 39.9921875 C11.95903167 34.97878951 13.05534317 30.91022183 14.4375 26.125 C16.33115311 19.52484035 17.28523099 13.8872848 17 7 C13.24116628 5.77837904 10.58957142 5.75990658 7.0625 7.4375 C1.54222538 11.05684135 0.78141656 17.12561554 -0.546875 23.16992188 C-0.86529424 24.7173018 -1.18299371 26.26482999 -1.5 27.8125 C-1.84597057 29.38021963 -2.19490094 30.94728918 -2.546875 32.51367188 C-3.39899167 36.33578265 -4.21024377 40.16453999 -5 44 C-8.3 44 -11.6 44 -15 44 C-14.68192383 42.58521362 -14.68192383 42.58521362 -14.35742188 41.1418457 C-13.56935552 37.63000659 -12.78828428 34.116642 -12.00927734 30.6027832 C-11.67165563 29.0844566 -11.33215829 27.56654576 -10.99072266 26.04907227 C-10.49924593 23.86321879 -10.01461514 21.67594088 -9.53125 19.48828125 C-9.37813354 18.81412674 -9.22501709 18.13997223 -9.06726074 17.44538879 C-8.29162067 13.90169574 -7.82910154 10.62854062 -8 7 C-10.89234315 6.17361624 -12.88742431 6 -16 6 C-15.7265625 4.11328125 -15.7265625 4.11328125 -15 2 C-10.31484439 -1.16533684 -5.38067647 -1.39897588 0 0 Z " fill="#029DDB" transform="translate(688,998)"/>
<path d="M0 0 C2.61211904 3.12280299 3.03471953 4.5648485 2.70703125 8.671875 C2.42830815 10.03537175 2.1292373 11.39482937 1.8125 12.75 C1.66321045 13.4601123 1.5139209 14.17022461 1.36010742 14.90185547 C0.92731934 16.93984732 0.46992819 18.97028786 0 21 C-0.32484375 22.40378906 -0.32484375 22.40378906 -0.65625 23.8359375 C-0.91921875 24.96902344 -0.91921875 24.96902344 -1.1875 26.125 C-2.50154569 32.18508143 -2.50154569 32.18508143 -1 38 C2.98323104 38.31865848 5.4788276 38.25692871 9.09619141 36.47363281 C12.69818364 33.40524662 13.44743114 30.6326106 14.3359375 26.171875 C14.50501617 25.42286926 14.67409485 24.67386353 14.84829712 23.90216064 C15.38003869 21.52246889 15.87784164 19.13713018 16.375 16.75 C16.73085304 15.1297192 17.08890288 13.50991921 17.44921875 11.890625 C18.32501302 7.93219833 19.17045819 3.9683658 20 0 C22.97 0 25.94 0 29 0 C28.34321845 8.3041346 26.70920891 16.06507112 24.72851562 24.140625 C23.60560233 28.85489656 22.68014764 33.11199983 23 38 C25.64 38.33 28.28 38.66 31 39 C30.875 40.875 30.875 40.875 30 43 C25.3195609 45.28314102 21.08727186 45.56525243 16 45 C13 42.5 13 42.5 11 40 C10.5153125 40.34933594 10.030625 40.69867187 9.53125 41.05859375 C4.57981941 44.41985336 1.03103867 46 -5 46 C-8.49474959 44.83508347 -10.3267731 43.96593425 -12.4375 40.9375 C-13.98105321 32.87672213 -11.34417635 24.6909156 -9.37255859 16.88964844 C-8.51311578 13.45030167 -8 10.5709539 -8 7 C-10.64 6.67 -13.28 6.34 -16 6 C-15.76171875 4.11328125 -15.76171875 4.11328125 -15 2 C-10.44078139 -0.65874433 -4.99956599 -1.90459657 0 0 Z " fill="#029DDB" transform="translate(884,998)"/>
<path d="M0 0 C-3.58167998 18.7566925 -7.81617294 37.37070308 -12 56 C-8.7 56 -5.4 56 -2 56 C-2.33 57.65 -2.66 59.3 -3 61 C-9.41271815 63.32592441 -14.29641993 64.70430002 -21 63 C-24 61.5625 -24 61.5625 -26 59 C-27.66423893 49.93373278 -24.19461584 40.12093372 -22.0625 31.375 C-21.49845866 29.02882031 -20.93772384 26.68192749 -20.38145447 24.33389282 C-20.03703175 22.8834442 -19.68789723 21.43410252 -19.33302307 19.98617554 C-18.21871337 15.33763985 -17.52293491 10.7525653 -17 6 C-19.97 5.505 -19.97 5.505 -23 5 C-23 3.68 -23 2.36 -23 1 C-15.31068715 -0.06059488 -7.75493514 -0.09928082 0 0 Z " fill="#029DDB" transform="translate(1130,576)"/>
<path d="M0 0 C4.73976542 3.94980452 6.61765147 7.41361957 7.37890625 13.55859375 C7.71303828 22.70950002 5.90615395 30.13852637 0.1875 37.375 C-4.26600464 42.1554708 -9.5607257 44.99098547 -16.078125 45.73828125 C-21.87479421 45.93636887 -26.27575675 44.98439661 -31 41.5 C-35.8753127 35.49961514 -36.63465913 30.01013308 -36 22.5 C-34.55981761 14.60340674 -31.42707763 7.87061592 -24.9375 2.9296875 C-17.64106166 -1.76471217 -8.2191192 -4.05595665 0 0 Z M-19 5.5 C-25.03920874 14.08754538 -27.03249584 23.09561886 -26 33.5 C-24.80814789 36.89677851 -23.98767113 38.71667462 -21.1875 40.9375 C-17.87932197 41.78817435 -16.26766384 41.65329312 -13 40.5 C-7.55784672 35.93785448 -4.12599037 30.50954367 -3 23.5 C-1.97576329 12.938184 -1.97576329 12.938184 -6 3.5 C-10.71674035 1.14162983 -15.1202311 2.21711862 -19 5.5 Z " fill="#029DDA" transform="translate(831,998.5)"/>
<path d="M0 0 C5.21283498 3.68712718 7.46636374 7.53462867 8.5625 13.8125 C8.79673026 23.0255567 6.92278009 30.87457597 0.734375 37.8828125 C-4.83175684 43.12023576 -10.40193362 45.86670576 -18.0625 46.1875 C-22.84336653 45.99035086 -26.43858992 44.84391268 -29.87890625 41.34765625 C-35.59092639 34.69176954 -35.03479529 28.19169969 -34.4375 19.8125 C-32.56940241 12.00250163 -27.18098923 5.51129456 -20.75 0.875 C-14.2906732 -2.0927988 -6.68131488 -2.3080906 0 0 Z M-18.4375 6.8125 C-23.19300063 13.20996501 -24.77540956 20.04029085 -24.6875 27.9375 C-24.69523438 28.64003906 -24.70296875 29.34257813 -24.7109375 30.06640625 C-24.69685753 33.79055938 -24.58185532 36.69552638 -22.4375 39.8125 C-19.94343949 41.68304538 -18.63712318 41.8209946 -15.5 41.6875 C-11.28030542 40.48187298 -8.7389972 38.80302513 -6.30859375 35.0859375 C-2.30781089 27.67489323 -0.39422691 19.22191337 -1.4375 10.8125 C-2.99021198 6.74587338 -3.80029402 5.23730398 -7.4375 2.8125 C-12.21804692 2.03727618 -14.80412561 3.79757231 -18.4375 6.8125 Z " fill="#029DDA" transform="translate(1011.4375,998.1875)"/>
<path d="M0 0 C0.804375 0.721875 1.60875 1.44375 2.4375 2.1875 C3.30375 2.868125 3.30375 2.868125 4.1875 3.5625 C8.09239172 8.63885924 8.14839133 15.07910045 7.4375 21.1875 C5.3714892 29.31753168 2.14886074 36.20227506 -4.4375 41.5 C-10.25346545 44.64062135 -16.00794998 46.00197071 -22.5625 45.1875 C-28.43602702 43.3955765 -31.11401663 41.05594711 -34.5625 36.1875 C-37.12932285 28.48703146 -36.27698917 19.77132287 -32.8828125 12.47265625 C-29.24901853 6.18339745 -24.97371751 1.45139165 -18.09375 -1.1875 C-11.78746114 -2.74460836 -5.8365706 -2.96948329 0 0 Z M-19.5625 6.1875 C-23.85221418 13.12945681 -25.70838983 18.99573087 -25.8125 27.125 C-25.83828125 28.33027344 -25.8640625 29.53554687 -25.890625 30.77734375 C-25.53538286 34.46932456 -24.79928592 36.26609036 -22.5625 39.1875 C-19.77315703 41.46093051 -19.77315703 41.46093051 -16.75 41.125 C-11.86232968 39.6874499 -8.8266531 37.40277782 -6.33203125 33.03125 C-3.59240475 27.09704097 -2.41275507 21.7374976 -2.3125 15.1875 C-2.28671875 14.176875 -2.2609375 13.16625 -2.234375 12.125 C-2.71731569 7.80153095 -4.53153184 5.21846816 -7.5625 2.1875 C-12.8323272 1.4688872 -15.63090488 2.67415968 -19.5625 6.1875 Z " fill="#029DDA" transform="translate(460.5625,998.8125)"/>
<path d="M0 0 C4.81045323 3.4025157 7.21632339 7.09124941 8.5625 12.8125 C9.29013003 21.54406034 7.19374154 29.96369272 1.5625 36.8125 C-4.35325687 42.92200437 -9.3715598 45.74985043 -18 46.125 C-22.82474529 45.98574589 -26.36698678 44.86617978 -29.87890625 41.3828125 C-34.69263487 35.86965322 -34.78934038 31.29063379 -34.7109375 24.234375 C-34.01881246 15.57292444 -30.00232629 8.45435072 -23.4375 2.8125 C-16.30544175 -1.9601817 -8.07922999 -2.79100672 0 0 Z M-18.4375 6.8125 C-22.849968 13.9339631 -24.59295165 19.90990582 -24.75 28.25 C-24.78738281 29.54808594 -24.82476563 30.84617187 -24.86328125 32.18359375 C-24.37438308 36.35044148 -23.41834725 37.9232882 -20.4375 40.8125 C-17.58460302 42.06579784 -17.58460302 42.06579784 -14.4375 41.8125 C-8.89494459 39.21089236 -5.98198456 35.21832947 -3.4375 29.8125 C-1.01830003 22.85573323 -0.35967952 15.03396354 -2.1875 7.875 C-3.68523827 5.40373186 -4.89326371 4.19365684 -7.4375 2.8125 C-12.20858655 1.93361564 -14.88370883 3.70293273 -18.4375 6.8125 Z " fill="#029DDB" transform="translate(658.4375,998.1875)"/>
<path d="M0 0 C2.4375 1.375 2.4375 1.375 4 4 C4.74135651 8.6009961 4.84195873 12.52657222 2.5 16.625 C-1.23754279 18.68064853 -3.75102744 18.40466405 -8 18 C-8.99 17.34 -9.98 16.68 -11 16 C-11.1875 12.375 -11.1875 12.375 -11 9 C-15.07762517 12.58725936 -16.71835803 15.08310568 -17.80078125 20.39453125 C-18.18266602 22.19760742 -18.18266602 22.19760742 -18.57226562 24.03710938 C-18.93868164 25.90592773 -18.93868164 25.90592773 -19.3125 27.8125 C-19.57611328 29.07771484 -19.83972656 30.34292969 -20.11132812 31.64648438 C-20.75771171 34.76087803 -21.38110957 37.88002657 -22 41 C-26.95 41 -31.9 41 -37 41 C-36.55527344 39.03675781 -36.11054687 37.07351563 -35.65234375 35.05078125 C-35.22803994 33.13793622 -34.80380792 31.2250745 -34.3815918 29.31176758 C-34.08734027 27.98706955 -33.789531 26.6631564 -33.48803711 25.34008789 C-33.0541826 23.43327939 -32.63435612 21.52329638 -32.21484375 19.61328125 C-31.95823975 18.46641846 -31.70163574 17.31955566 -31.43725586 16.13793945 C-31.00861627 13.06183414 -31.18015385 10.9704218 -32 8 C-34.31 8 -36.62 8 -39 8 C-38.67 6.35 -38.34 4.7 -38 3 C-32.49945283 0.62138501 -26.89760264 0.10006952 -21 1 C-18.42734962 2.41176034 -17.0218228 3.81424562 -15 6 C-14.05125 5.195625 -13.1025 4.39125 -12.125 3.5625 C-8.05219005 0.10946548 -5.467807 -0.47136267 0 0 Z " fill="#029DDA" transform="translate(920,597)"/>
<path d="M0 0 C1.54300781 -0.03867187 1.54300781 -0.03867187 3.1171875 -0.078125 C6.54247708 0.29554295 8.36438657 1.22717883 11.125 3.25 C13.29337367 6.45542195 13.24805892 8.98158272 12.6875 12.6875 C11.5515137 16.88298314 9.98618713 19.34478172 6.51953125 21.96484375 C-0.33345502 25.6428739 -8.11892563 27.55693749 -15.875 27.25 C-15.47657441 28.85879422 -15.05546843 30.46198173 -14.625 32.0625 C-14.39296875 32.95582031 -14.1609375 33.84914063 -13.921875 34.76953125 C-12.69608184 37.67392921 -11.57651992 38.68006012 -8.875 40.25 C-4.95318463 40.84679799 -3.23440235 40.45126532 0.25 38.5 C2.74866335 36.54452433 4.96886081 34.57199605 7.125 32.25 C8.445 32.91 9.765 33.57 11.125 34.25 C7.82517568 40.27576614 2.71348834 44.8069161 -3.94921875 46.90234375 C-9.98284829 47.9915791 -14.52449573 47.22250237 -19.875 44.25 C-24.79703589 39.83539049 -25.69358999 35.92579761 -26.125 29.5625 C-25.96111887 20.84402385 -22.6334722 12.76684243 -16.875 6.25 C-11.55295333 2.02663342 -6.82484999 0.10211746 0 0 Z M-10.875 10.25 C-13.50378904 14.31195414 -15.2708502 18.4168016 -15.875 23.25 C-9.12387887 23.07809645 -4.04416492 21.75334742 1.125 17.25 C3.55914603 13.78318596 4.19383322 12.16204018 3.875 7.9375 C3.39047044 5.35179942 3.39047044 5.35179942 2.125 4.25 C-3.94623042 3.23812826 -7.06659009 5.87772358 -10.875 10.25 Z " fill="#029DDA" transform="translate(333.875,996.75)"/>
<path d="M0 0 C2.22265625 1.6640625 2.22265625 1.6640625 4.22265625 4.6640625 C3.68211571 9.20460304 3.68211571 9.20460304 2.22265625 10.6640625 C-1.15234375 11.0390625 -1.15234375 11.0390625 -4.77734375 10.6640625 C-7.15898567 7.82145763 -7.77734375 6.38000983 -7.77734375 2.6640625 C-9.69546875 3.0971875 -9.69546875 3.0971875 -11.65234375 3.5390625 C-12.73128906 3.78269531 -12.73128906 3.78269531 -13.83203125 4.03125 C-15.98454339 4.56880678 -15.98454339 4.56880678 -17.77734375 6.6640625 C-18.27744899 9.62175427 -18.27744899 9.62175427 -17.77734375 12.6640625 C-14.01434942 16.13209528 -9.18205728 17.82910239 -4.5546875 19.87109375 C-1.14759746 22.07060758 -0.16825458 23.89218278 1.22265625 27.6640625 C1.65342671 31.92477391 0.4507165 35.23237702 -1.52734375 38.9765625 C-4.76204717 42.84023603 -7.89678994 44.65950406 -12.77734375 45.6640625 C-20.15822306 46.30695316 -25.50387062 45.55899591 -31.71484375 41.3515625 C-33.34913927 38.75591668 -33.09498528 36.64989287 -32.77734375 33.6640625 C-30.77734375 31.6640625 -30.77734375 31.6640625 -27.83984375 31.2890625 C-24.77734375 31.6640625 -24.77734375 31.6640625 -22.96484375 33.3515625 C-21.70259 35.8096356 -21.15623191 37.93606773 -20.77734375 40.6640625 C-19.33873081 40.57659966 -17.90136867 40.46840902 -16.46484375 40.3515625 C-15.66433594 40.29355469 -14.86382813 40.23554687 -14.0390625 40.17578125 C-11.33527744 39.56404404 -10.37472975 38.91678634 -8.77734375 36.6640625 C-8.41668065 34.61042644 -8.41668065 34.61042644 -8.58984375 32.4765625 C-8.65171875 31.2184375 -8.71359375 29.9603125 -8.77734375 28.6640625 C-9.60234375 28.4165625 -10.42734375 28.1690625 -11.27734375 27.9140625 C-23.75444299 23.45795563 -23.75444299 23.45795563 -26.77734375 17.6640625 C-27.5010263 13.54941026 -27.732332 9.61467679 -25.859375 5.7890625 C-19.91183525 -1.91001808 -8.77564449 -4.22119608 0 0 Z " fill="#029CD9" transform="translate(594.77734375,998.3359375)"/>
<path d="M0 0 C1.12148437 -0.02578125 2.24296875 -0.0515625 3.3984375 -0.078125 C7.22926347 0.31145052 9.88309233 1.50809233 12.625 4.25 C12.86029412 9.77941176 12.86029412 9.77941176 11.625 12.25 C8.3125 12.5625 8.3125 12.5625 4.625 12.25 C2.75 9.875 2.75 9.875 1.625 7.25 C1.295 6.59 0.965 5.93 0.625 5.25 C-4.39035052 5.57960216 -4.39035052 5.57960216 -8.375 8.25 C-9.04221536 11.16440699 -9.04221536 11.16440699 -8.375 14.25 C-5.27690357 16.88338197 -1.88169918 18.49535882 1.75 20.25 C7.81231311 23.30438381 7.81231311 23.30438381 9.625 26.25 C10.27878084 31.10451062 10.23543271 35.5623331 8.5625 40.1875 C4.86242306 44.12629158 -0.12644041 46.94995542 -5.57421875 47.453125 C-11.5896126 47.56644482 -15.90411061 46.79005579 -21.375 44.25 C-23.375 42.25 -23.375 42.25 -23.625 38.75 C-23.375 35.25 -23.375 35.25 -21.375 33.25 C-18.25 33.125 -18.25 33.125 -15.375 33.25 C-15.15585938 33.81589844 -14.93671875 34.38179687 -14.7109375 34.96484375 C-12.72872305 39.7975507 -12.72872305 39.7975507 -8.4375 42.4375 C-4.74285451 42.21129722 -3.11807984 41.75795871 -0.375 39.25 C0.52092083 35.65080577 0.52092083 35.65080577 0.625 32.25 C-3.05889067 29.88445599 -6.67444348 27.58680602 -10.625 25.6875 C-13.62414983 24.11976259 -15.37557209 22.98995676 -17.375 20.25 C-18.46157457 15.75882512 -18.76859097 13.43077291 -17.3125 9.0625 C-12.7670964 2.46433349 -7.99000486 0.10970258 0 0 Z " fill="#029BD9" transform="translate(1098.375,996.75)"/>
<path d="M0 0 C2.26171875 1.59765625 2.26171875 1.59765625 4.26171875 3.59765625 C4.5625 5.875 4.5625 5.875 4.57421875 8.53515625 C4.59097656 9.41042969 4.60773438 10.28570313 4.625 11.1875 C4.26171875 13.59765625 4.26171875 13.59765625 2.96875 15.4296875 C1.26171875 16.59765625 1.26171875 16.59765625 -2.36328125 16.34765625 C-5.73828125 15.59765625 -5.73828125 15.59765625 -6.73828125 14.59765625 C-6.3603464 10.69232942 -5.97775612 7.31608085 -4.73828125 3.59765625 C-9.71033124 3.30518272 -12.89251641 3.27158936 -16.73828125 6.59765625 C-21.54151468 13.10203485 -23.50298629 22.4413594 -22.328125 30.36328125 C-21.08488799 34.77842718 -21.08488799 34.77842718 -17.86328125 37.83984375 C-14.3998728 39.07495632 -11.17919152 38.64115687 -7.73828125 37.59765625 C-4.77884656 35.77744481 -2.31807695 33.75724765 -0.73828125 30.59765625 C0.58171875 31.25765625 1.90171875 31.91765625 3.26171875 32.59765625 C0.76300728 38.38548791 -4.16930939 42.39181232 -9.80078125 45.03515625 C-16.30777544 46.28117641 -20.86236469 45.75324107 -26.73828125 42.59765625 C-30.84816622 39.02384323 -32.5698237 36.87597557 -32.9765625 31.375 C-33.18113126 20.79125847 -31.98732265 12.03508041 -24.41796875 4.0703125 C-17.79985107 -1.7320837 -8.1563073 -4.17705324 0 0 Z " fill="#029CDA" transform="translate(505.73828125,998.40234375)"/>
<path d="M0 0 C-0.62327763 6.8985803 -1.89432945 13.43662005 -3.50390625 20.16796875 C-4.00200199 22.2988167 -4.50004738 24.42967643 -4.99804688 26.56054688 C-5.78181708 29.8854759 -6.56779922 33.2098703 -7.35522461 36.53393555 C-8.11864298 39.76484391 -8.87408677 42.9975425 -9.62890625 46.23046875 C-9.98511803 47.71657906 -9.98511803 47.71657906 -10.348526 49.23271179 C-11.43831595 53.91072904 -12.30836363 58.15813219 -12 63 C-9.03 63.33 -6.06 63.66 -3 64 C-3.33 65.32 -3.66 66.64 -4 68 C-7.49189849 69.93720163 -10.67197512 70.32055062 -14.625 70.375 C-15.56601562 70.40335938 -16.50703125 70.43171875 -17.4765625 70.4609375 C-20 70 -20 70 -21.6683197 68.2585907 C-23.24855038 65.57844719 -23.24403017 64.44705367 -22.83032227 61.40161133 C-22.65147995 60.08007553 -22.65147995 60.08007553 -22.46902466 58.73184204 C-21.70888177 54.30437698 -20.75722914 49.94309518 -19.71484375 45.57421875 C-19.3840255 44.14829155 -19.3840255 44.14829155 -19.04652405 42.69355774 C-18.34941788 39.69012473 -17.64437681 36.68864731 -16.9375 33.6875 C-16.22734504 30.66843837 -15.51913908 27.64899812 -14.81776428 24.62788391 C-14.38338132 22.75686663 -13.94401819 20.8869966 -13.49900818 19.01847839 C-12.55399232 14.94893608 -11.7002569 11.21109129 -12 7 C-13.98 6.34 -15.96 5.68 -18 5 C-18 3.68 -18 2.36 -18 1 C-11.96445452 0.30739642 -6.07593562 -0.11251733 0 0 Z " fill="#029CDA" transform="translate(867,973)"/>
<path d="M0 0 C3 2.0625 3 2.0625 5 5 C5 8.57186665 4.74592267 10.88111599 2.75 13.875 C0.43139165 15.36553394 -1.24506837 15.80321917 -4 16 C-6.93285432 15.23187149 -8.62461272 14.33784856 -10.875 12.3125 C-12.55034251 8.86874039 -11.99044279 6.63162357 -11 3 C-7.92151183 -0.67050512 -4.56638127 -0.64089562 0 0 Z " fill="#029DDA" transform="translate(1242,576)"/>
<path d="M0 0 C1.89488952 1.89488952 1.18019112 4.57139146 1.23046875 7.08984375 C1 9 1 9 -1 11 C-2.875 11.265625 -2.875 11.265625 -5 11.25 C-5.70125 11.25515625 -6.4025 11.2603125 -7.125 11.265625 C-9 11 -9 11 -11 9 C-11.56891496 3.8797654 -11.56891496 3.8797654 -11 1 C-7.2235068 -2.7764932 -4.62544065 -2.10247302 0 0 Z " fill="#0299D6" transform="translate(1177,1032)"/>
<path d="M0 0 C1.5625 2.8125 1.5625 2.8125 2 6 C1.0625 8.875 1.0625 8.875 -1 11 C-4.50689795 11.50098542 -6.82393204 11.68287817 -9.9375 9.875 C-11.48724515 7.14015561 -11.32162076 5.0875593 -11 2 C-7.74455977 -2.88316035 -4.96781842 -2.43106008 0 0 Z " fill="#029DDB" transform="translate(1129,1032)"/>
<path d="M0 0 C1.89488952 1.89488952 1.18019112 4.57139146 1.23046875 7.08984375 C1 9 1 9 -1 11 C-7.00458716 11.54587156 -7.00458716 11.54587156 -9.9375 9.9375 C-11.653547 6.80823783 -11.49748049 4.48236342 -11 1 C-7.17234776 -2.71507424 -4.63784269 -2.10811031 0 0 Z " fill="#029CD9" transform="translate(1153,1032)"/>
<path d="M0 0 C2.8125 1.25 2.8125 1.25 3.8125 2.25 C4.27235401 8.4580292 4.27235401 8.4580292 2.6875 11.1875 C-0.10912472 12.77225401 -2.0368196 12.70947423 -5.1875 12.25 C-7.125 10.625 -7.125 10.625 -8.1875 8.25 C-8.11609596 4.7512018 -7.76868619 2.93881326 -5.5 0.25 C-3.1875 -0.75 -3.1875 -0.75 0 0 Z " fill="#029EDC" transform="translate(971.1875,974.75)"/>
<path d="M0 0 C1 3 1 3 0.109375 5.2265625 C-0.33921875 6.01804687 -0.7878125 6.80953125 -1.25 7.625 C-1.68828125 8.42164063 -2.1265625 9.21828125 -2.578125 10.0390625 C-4 12 -4 12 -7 13 C-5.35821735 8.22390502 -2.73453298 4.20617096 0 0 Z " fill="#02D0D6" transform="translate(1130,673)"/>
<path d="M0 0 C0.66 0.33 1.32 0.66 2 1 C-0.97 5.95 -0.97 5.95 -4 11 C-4.66 10.67 -5.32 10.34 -6 10 C-5.38302681 8.51746733 -4.75616104 7.03904826 -4.125 5.5625 C-3.60292969 4.32693359 -3.60292969 4.32693359 -3.0703125 3.06640625 C-2 1 -2 1 0 0 Z " fill="#055197" transform="translate(277,245)"/>
<path d="M0 0 C0.66 0.33 1.32 0.66 2 1 C-0.31 4.63 -2.62 8.26 -5 12 C-6 9 -6 9 -5.0390625 6.9921875 C-4.57242187 6.29351562 -4.10578125 5.59484375 -3.625 4.875 C-3.16351563 4.17117188 -2.70203125 3.46734375 -2.2265625 2.7421875 C-1 1 -1 1 0 0 Z " fill="#02CFDF" transform="translate(301,263)"/>
<path d="" fill="#010101" transform="translate(0,0)"/>
</svg>
